<?xml version="1.0" standalone="no"?>
<!DOCTYPE svg PUBLIC "-//W3C//DTD SVG 20010904//EN"
 "http://www.w3.org/TR/2001/REC-SVG-20010904/DTD/svg10.dtd">
<svg version="1.0" xmlns="http://www.w3.org/2000/svg"
 width="284.000000pt" height="177.000000pt" viewBox="0 0 284.000000 177.000000"
 preserveAspectRatio="xMidYMid meet">

<g transform="translate(0.000000,177.000000) scale(0.100000,-0.100000)"
fill="#000000" stroke="none">
<path d="M2515 1699 c-22 -21 -44 -39 -49 -39 -4 0 -21 -11 -38 -25 -19 -16
-42 -25 -64 -25 -19 0 -34 -4 -34 -10 0 -5 -15 -10 -34 -10 -18 0 -57 -5 -87
-10 -29 -6 -92 -15 -139 -20 -136 -16 -248 -38 -256 -52 -3 -4 -12 -8 -20 -8
-8 0 -32 -12 -53 -26 -22 -14 -47 -24 -58 -22 -10 2 -17 -2 -16 -9 4 -17 -45
-64 -67 -66 -10 -1 -17 -5 -14 -9 3 -4 -11 -23 -30 -43 -34 -35 -54 -46 -40
-22 15 24 -27 -16 -49 -47 -15 -23 -17 -27 -4 -17 30 24 27 7 -4 -27 -17 -18
-34 -30 -39 -27 -9 6 -52 -49 -44 -57 10 -11 -20 -58 -35 -56 -11 2 -15 -4
-13 -19 2 -17 -1 -21 -11 -17 -15 5 -81 -65 -70 -75 3 -3 8 0 10 7 5 14 23 17
23 3 0 -5 -15 -14 -32 -21 -32 -11 -32 -12 -14 -26 11 -7 24 -14 29 -14 4 0 6
-4 2 -9 -3 -5 0 -13 6 -17 8 -4 9 -3 5 4 -4 7 -1 12 9 12 9 0 23 7 31 15 9 8
22 15 30 15 26 0 14 -25 -21 -44 -19 -11 -35 -24 -35 -31 0 -6 -11 -18 -25
-25 -27 -15 -24 -24 13 -35 21 -6 22 -4 16 19 -7 29 4 33 37 15 19 -10 19 -12
4 -23 -21 -15 -15 -51 8 -50 19 2 23 -11 6 -21 -5 -4 -8 -21 -5 -38 3 -18 3
-25 -2 -17 -7 15 -52 27 -52 14 0 -3 8 -28 17 -56 16 -43 16 -50 3 -58 -8 -5
-23 -7 -32 -4 -13 4 -18 0 -18 -15 0 -12 5 -21 10 -21 6 0 10 -8 10 -18 0 -15
60 -52 95 -58 6 -1 15 -3 20 -4 6 -2 15 -4 20 -5 6 -2 12 -4 15 -5 17 -9 200
-6 200 2 0 6 7 5 15 -2 13 -10 19 -10 35 5 11 10 20 13 20 7 0 -21 19 -13 33
14 l13 25 13 -28 13 -28 15 30 c15 28 16 28 24 8 11 -30 31 -40 43 -20 9 15
13 14 33 -11 17 -22 24 -25 34 -15 10 10 18 8 36 -9 19 -18 27 -20 41 -11 14
8 23 7 37 -3 23 -17 52 -18 57 -2 3 7 15 3 35 -12 33 -24 63 -22 63 5 0 13 8
11 37 -10 21 -14 43 -25 49 -25 14 0 26 28 18 41 -9 15 6 11 63 -17 61 -30 80
-24 64 19 -6 15 -9 27 -7 27 2 0 28 -11 58 -25 56 -26 98 -32 98 -14 0 5 -13
15 -29 20 -16 6 -32 17 -35 25 -3 9 -14 14 -23 13 -25 -3 -54 11 -47 23 3 5
13 1 21 -9 14 -17 14 -17 9 0 -5 15 -2 16 14 7 10 -5 21 -6 24 -2 3 5 36 -7
74 -25 46 -23 79 -33 98 -31 l29 4 -32 13 c-17 7 -34 19 -37 27 -3 8 -17 14
-32 14 -27 0 -27 0 -8 22 12 14 14 18 4 13 -8 -4 -12 -5 -8 0 4 4 2 15 -5 24
-9 11 -4 10 18 -4 53 -34 108 -57 149 -63 28 -4 37 -2 32 6 -4 7 -13 12 -20
12 -24 0 -124 50 -130 65 -2 7 -15 14 -28 14 -13 0 -34 1 -47 1 -14 0 -33 -8
-43 -17 -17 -16 -18 -15 -14 8 3 13 5 29 5 34 1 10 17 13 79 16 15 0 54 -11
87 -25 59 -25 152 -36 140 -16 -3 6 -16 10 -28 10 -12 0 -33 6 -47 13 -14 7
-44 19 -67 26 -37 12 -68 41 -43 41 5 0 7 7 4 15 -5 13 -2 13 31 -1 40 -16
116 -16 122 2 2 5 -11 10 -30 11 -18 0 -84 23 -147 51 -63 28 -158 69 -210 91
-52 23 -103 46 -112 51 -10 6 -25 10 -33 10 -8 0 -15 5 -15 11 0 5 -4 8 -9 5
-5 -3 -8 -14 -6 -24 1 -9 0 -11 -2 -4 -3 8 -13 12 -23 9 -12 -3 -17 0 -14 8 6
13 -12 30 -41 39 -16 4 -24 -2 -39 -34 -19 -40 -15 -91 4 -60 7 11 10 6 10
-17 0 -20 -5 -33 -12 -34 -7 0 -5 -4 5 -8 17 -6 16 -10 -12 -41 -17 -19 -31
-43 -31 -53 0 -10 -4 -16 -10 -12 -6 4 -6 15 0 31 13 33 13 31 -12 45 -17 9
-24 8 -34 -5 -11 -16 -15 -14 -48 18 -19 20 -38 36 -42 36 -3 0 -4 -16 -2 -35
3 -26 1 -32 -8 -24 -15 13 -30 -8 -25 -36 2 -19 2 -19 -15 -3 -14 14 -16 20
-6 30 16 16 15 28 -2 28 -7 0 -16 -10 -19 -22 -5 -17 -9 -19 -20 -9 -12 9 -16
7 -20 -10 -5 -20 -6 -20 -31 -3 -40 25 -113 27 -134 3 -19 -22 -42 -25 -42 -5
0 8 -7 16 -15 20 -8 3 -15 1 -15 -4 0 -19 -18 -10 -23 11 -3 12 -10 18 -17 14
-6 -4 -9 -14 -5 -24 5 -12 3 -13 -5 -5 -8 8 -9 18 -2 30 5 11 6 28 1 39 -6 17
-8 17 -8 3 -1 -22 -31 -24 -31 -2 0 8 -4 13 -8 10 -4 -2 -9 4 -9 15 -1 14 7
24 27 30 17 6 31 20 34 35 7 26 22 30 46 13 12 -9 12 -10 -4 -5 -16 6 -17 4
-6 -9 7 -8 19 -15 27 -15 23 0 11 43 -15 56 -16 8 -20 14 -12 19 7 4 16 1 21
-6 5 -8 9 -9 9 -4 0 6 9 -3 20 -20 11 -16 17 -38 14 -47 -3 -10 -1 -18 5 -18
6 0 10 15 9 33 -1 32 43 112 56 100 3 -4 6 16 6 43 0 27 3 59 6 72 4 12 2 22
-4 22 -6 0 -13 -8 -15 -17 -3 -13 -5 -11 -6 6 -1 19 -4 21 -15 12 -7 -6 -21
-8 -31 -5 -13 5 -16 2 -13 -16 1 -13 -3 -25 -9 -27 -9 -3 -13 8 -13 36 l0 41
40 0 c22 0 40 -4 40 -10 0 -16 27 -11 34 6 6 15 8 15 26 -1 12 -10 20 -13 20
-7 0 7 7 12 15 12 9 0 20 12 25 26 13 33 13 33 -9 27 -11 -3 -22 -15 -24 -27
-4 -19 -4 -19 -5 -1 -3 35 13 48 47 40 30 -6 44 -25 19 -25 -7 0 -2 -6 12 -13
16 -8 26 -23 28 -40 2 -15 8 -27 13 -27 14 0 11 -30 -4 -36 -14 -5 -16 -58 -4
-71 4 -3 16 2 27 12 10 9 57 35 102 56 l83 39 167 0 c106 0 195 5 245 15 43 8
97 15 120 15 61 0 62 17 0 22 -34 3 -65 14 -89 30 -20 14 -35 27 -33 29 2 2
-20 5 -48 7 l-52 2 40 -18 c46 -22 72 -49 59 -61 -5 -5 -30 -12 -55 -15 l-46
-7 -7 40 c-8 51 -19 57 -60 31 -31 -18 -50 -21 -164 -21 -71 0 -135 3 -143 5
-8 3 -36 7 -64 10 -77 9 -89 12 -93 24 -2 7 1 12 7 12 6 0 10 3 8 8 -1 4 8 17
21 30 16 16 29 21 46 16 23 -5 56 16 56 36 0 5 13 7 30 4 34 -7 60 9 60 37 0
22 1 22 33 8 31 -14 67 3 67 31 0 17 7 20 44 20 24 0 58 3 76 6 l32 7 -33 15
c-33 15 -33 16 -9 19 64 8 130 25 136 35 5 7 1 9 -9 5 -10 -4 -30 -1 -45 5
-26 11 -25 11 26 20 29 4 64 14 78 21 22 12 18 13 -43 9 -49 -2 -64 0 -53 7 8
6 25 11 37 11 36 0 103 31 114 52 10 19 10 19 -18 -1 -27 -19 -103 -40 -103
-28 0 4 19 17 43 31 49 29 101 80 96 94 -2 5 -22 -8 -44 -29z m-507 -244 c-3
-3 -9 2 -12 12 -6 14 -5 15 5 6 7 -7 10 -15 7 -18z m-332 -92 c-10 -10 -19 5
-10 18 6 11 8 11 12 0 2 -7 1 -15 -2 -18z m48 -17 c3 -13 9 -32 12 -41 6 -14
1 -16 -32 -13 -46 4 -56 26 -25 57 27 27 37 26 45 -3z m-104 -147 c0 -5 -4 -9
-10 -9 -5 0 -10 7 -10 16 0 8 5 12 10 9 6 -3 10 -10 10 -16z m-212 -48 c-7
-12 -16 -21 -21 -21 -4 0 0 11 10 24 22 29 30 27 11 -3z m678 3 c-22 -16 -36
-18 -36 -6 0 13 7 18 32 19 22 2 22 1 4 -13z m-152 -26 c-3 -4 -14 -8 -25 -8
-18 0 -18 1 -1 18 16 17 37 9 26 -10z m381 12 c-3 -5 -10 -10 -16 -10 -5 0 -9
5 -9 10 0 6 7 10 16 10 8 0 12 -4 9 -10z m-360 -30 c-3 -5 0 -10 7 -10 10 0 9
-3 -1 -9 -10 -6 -23 -5 -35 2 -21 11 -20 11 4 18 14 4 26 7 28 8 2 1 0 -3 -3
-9z m-294 -27 c0 -5 2 -16 4 -25 2 -10 0 -18 -5 -18 -8 0 -20 24 -20 41 0 11
20 12 21 2z m-92 -99 c-20 -37 -28 -28 -10 12 8 19 17 30 19 24 3 -7 -1 -23
-9 -36z m45 37 c3 -5 -1 -11 -9 -15 -9 -3 -15 0 -15 9 0 16 16 20 24 6z m-311
-16 c-3 -9 -8 -14 -10 -11 -3 3 -2 9 2 15 9 16 15 13 8 -4z m869 -159 c5 -7 8
-7 8 2 0 7 5 10 10 7 15 -9 12 -32 -7 -54 -16 -20 -17 -19 -35 21 -10 22 -18
42 -18 44 0 7 35 -10 42 -20z m-672 -126 c0 -5 -5 -10 -11 -10 -5 0 -7 5 -4
10 3 6 8 10 11 10 2 0 4 -4 4 -10z m238 -18 c3 -9 -2 -13 -14 -10 -9 1 -19 9
-22 16 -3 9 2 13 14 10 9 -1 19 -9 22 -16z m179 -14 c-3 -8 -6 -5 -6 6 -1 11
2 17 5 13 3 -3 4 -12 1 -19z m340 -14 c-9 -10 -38 16 -31 28 4 6 13 4 22 -6 9
-8 13 -19 9 -22z m51 19 c-6 -7 -12 -13 -13 -13 -2 0 -5 6 -8 13 -3 7 3 13 14
13 13 0 15 -3 7 -13z m-518 -36 c4 -5 11 4 15 20 l7 28 17 -33 c15 -30 19 -32
30 -18 10 12 31 16 76 16 47 0 64 4 69 15 10 26 22 16 32 -27 11 -50 30 -60
44 -23 10 25 14 27 48 21 20 -3 58 -6 84 -6 41 0 46 -2 41 -20 -4 -15 0 -20
16 -20 11 0 21 5 21 10 0 6 25 10 55 10 32 0 55 -4 55 -11 0 -5 4 -7 10 -4 5
3 20 1 32 -6 22 -12 22 -12 3 -21 -16 -7 -15 -7 6 -3 20 4 28 0 32 -14 5 -21
-10 -31 -46 -31 -21 1 -21 1 -4 14 16 13 16 14 -9 20 -30 8 -74 -16 -74 -39 0
-8 -4 -15 -10 -15 -5 0 -10 7 -10 16 0 8 -5 12 -11 9 -5 -4 -19 1 -30 11 -18
16 -25 17 -67 5 -58 -15 -60 -17 -38 -39 14 -12 20 -14 23 -4 8 20 26 13 20
-8 -5 -19 23 -46 35 -34 3 2 20 9 38 14 26 7 31 7 22 -2 -19 -19 -14 -29 7
-16 11 7 17 16 15 20 -8 12 15 9 30 -4 9 -9 10 -18 2 -35 -13 -27 -22 -29 -35
-6 -5 10 -13 15 -17 11 -4 -5 -14 -2 -22 4 -12 10 -19 7 -37 -14 -19 -22 -24
-24 -29 -12 -3 9 -4 20 0 25 3 5 -7 9 -21 9 -15 0 -24 -4 -20 -10 4 -6 3 -10
-2 -9 -22 4 -32 -2 -27 -16 4 -8 2 -15 -2 -15 -15 0 -30 14 -38 35 -5 13 -10
16 -13 7 -3 -6 -9 -10 -13 -7 -5 3 -15 -4 -23 -15 -13 -18 -16 -19 -27 -5 -7
8 -21 15 -31 15 -11 0 -18 3 -18 8 3 18 -2 30 -16 36 -8 3 -14 2 -14 -2 4 -25
-2 -34 -14 -23 -8 6 -18 7 -22 3 -5 -4 -5 -1 -1 6 4 7 12 10 17 7 5 -4 9 3 9
14 0 27 -47 52 -77 40 -13 -5 -23 -15 -23 -23 0 -22 -20 -30 -33 -13 -15 18
-47 30 -47 17 0 -12 -29 -2 -52 17 -15 13 -16 13 -11 -5 2 -11 0 -23 -5 -26
-6 -4 -8 3 -4 16 4 17 2 20 -11 15 -11 -4 -14 -2 -10 8 3 8 8 13 12 11 4 -3
13 -1 21 5 11 6 9 9 -11 9 -26 0 -39 -20 -39 -60 0 -13 1 -13 10 0 6 9 10 10
10 3 0 -11 -30 -33 -44 -33 -3 0 -6 16 -6 35 0 32 -2 35 -19 26 -16 -9 -18 -8
-14 9 4 15 2 19 -10 14 -11 -4 -17 5 -22 36 -4 23 -4 44 -1 47 3 4 6 1 6 -5 0
-7 6 -12 14 -12 8 0 31 -10 51 -22 31 -17 38 -19 46 -7 23 37 36 55 59 77 23
22 25 23 28 6 2 -11 7 -23 12 -27z m-418 -46 c2 -18 -2 -25 -19 -27 -25 -4
-26 -3 -17 20 3 9 10 13 15 10 5 -3 9 3 9 12 0 24 7 14 12 -15z m186 4 c2 -10
-1 -21 -8 -25 -9 -6 -9 -13 0 -29 10 -20 10 -21 -9 -9 -11 6 -18 15 -15 19 2
4 -2 9 -9 12 -11 4 -15 34 -8 54 4 11 47 -8 49 -22z m-88 -50 c-7 -9 -15 -13
-17 -11 -7 7 7 26 19 26 6 0 6 -6 -2 -15z m-110 -5 c12 -7 12 -12 2 -22 -9 -9
-12 -9 -12 4 0 9 -6 19 -12 21 -7 3 -8 6 -3 6 6 0 17 -4 25 -9z m75 -17 c-9
-37 -11 -38 -30 -20 -19 20 -20 41 0 33 8 -3 15 -1 15 4 0 6 5 10 11 10 7 0 9
-10 4 -27z m145 -30 c-1 -25 -43 -42 -55 -23 -3 6 0 7 9 4 11 -4 16 0 16 10 0
9 7 16 15 16 8 0 15 -3 15 -7z m910 -7 c0 -10 -7 -12 -22 -8 -21 5 -21 6 -2
13 10 4 20 8 22 8 1 1 2 -5 2 -13z m80 4 c0 -5 -2 -10 -4 -10 -3 0 -8 5 -11
10 -3 6 -1 10 4 10 6 0 11 -4 11 -10z m-640 -14 c0 -2 -7 -9 -15 -16 -13 -11
-14 -10 -9 4 5 14 24 23 24 12z m65 -25 c3 -5 1 -12 -5 -16 -5 -3 -10 1 -10 9
0 18 6 21 15 7z"/>
<path d="M1915 640 c-3 -6 1 -7 9 -4 18 7 21 14 7 14 -6 0 -13 -4 -16 -10z"/>
<path d="M2193 613 c9 -2 25 -2 35 0 9 3 1 5 -18 5 -19 0 -27 -2 -17 -5z"/>
<path d="M1770 600 c0 -5 5 -10 10 -10 6 0 10 5 10 10 0 6 -4 10 -10 10 -5 0
-10 -4 -10 -10z"/>
<path d="M2027 550 c-3 -11 -1 -20 4 -20 5 0 9 9 9 20 0 11 -2 20 -4 20 -2 0
-6 -9 -9 -20z"/>
<path d="M2107 500 c-5 -19 -2 -21 20 -16 14 4 22 3 19 -3 -3 -5 1 -12 10 -15
23 -9 24 -8 24 19 0 18 -5 25 -19 25 -11 0 -26 3 -34 6 -9 3 -16 -3 -20 -16z"/>
<path d="M1833 1149 c4 -12 -3 -16 -26 -17 -64 -3 -68 -4 -61 -26 4 -12 6 -39
5 -61 l-2 -40 51 3 c27 2 50 6 50 9 0 12 -37 32 -60 33 l-25 1 24 19 c13 11
29 20 36 20 19 0 28 36 15 57 -9 13 -10 14 -7 2z"/>
<path d="M1716 1064 c-5 -14 -4 -15 9 -4 17 14 19 20 6 20 -5 0 -12 -7 -15
-16z"/>
<path d="M1720 982 c0 -7 -10 -12 -22 -12 -19 0 -20 -2 -8 -10 16 -10 50 14
37 26 -4 4 -7 2 -7 -4z"/>
<path d="M1886 981 c-3 -5 17 -8 44 -8 27 1 50 5 50 10 0 10 -88 9 -94 -2z"/>
<path d="M2011 966 c-13 -7 -20 -16 -15 -19 5 -3 20 0 33 7 13 7 20 16 15 19
-5 3 -20 0 -33 -7z"/>
<path d="M1819 955 c-1 -3 -1 -14 -1 -25 0 -11 0 -22 1 -25 1 -8 41 14 41 23
0 8 -39 35 -41 27z"/>
<path d="M1880 936 c0 -9 7 -16 16 -16 9 0 14 5 12 12 -6 18 -28 21 -28 4z"/>
<path d="M377 909 c-4 -13 -1 -26 5 -30 16 -10 -36 -41 -56 -33 -9 3 -16 10
-16 15 0 5 -4 9 -9 9 -5 0 0 -23 12 -50 20 -47 23 -50 52 -44 l30 5 -3 -120
c-2 -70 0 -121 6 -121 25 0 80 103 103 193 10 40 15 48 31 44 19 -6 29 10 44
70 5 20 4 24 -6 18 -23 -14 -70 -13 -70 1 0 26 -23 65 -31 52 -6 -9 -11 -9
-23 1 -13 11 -19 11 -32 0 -12 -10 -17 -10 -23 0 -6 9 -10 6 -14 -10z"/>
<path d="M2047 913 c7 -18 22 -33 35 -33 10 0 -3 33 -16 42 -18 13 -26 9 -19
-9z"/>
<path d="M1227 877 c-11 -29 -9 -53 4 -40 6 6 9 21 7 34 -3 21 -4 22 -11 6z"/>
<path d="M1780 880 c0 -5 5 -10 10 -10 6 0 10 5 10 10 0 6 -4 10 -10 10 -5 0
-10 -4 -10 -10z"/>
<path d="M1682 856 c1 -14 8 -26 16 -26 17 0 12 42 -5 48 -9 2 -12 -5 -11 -22z"/>
<path d="M1192 850 c-17 -27 -15 -35 4 -16 8 9 14 21 12 26 -2 6 -9 1 -16 -10z"/>
<path d="M1910 852 c0 -20 18 -42 35 -42 5 0 3 5 -5 10 -13 9 -13 12 3 24 24
18 21 26 -8 26 -17 0 -25 -5 -25 -18z"/>
<path d="M1980 853 c0 -7 6 -13 14 -13 7 0 20 -8 27 -17 13 -15 12 -16 -9 -11
-12 4 -20 2 -16 -3 9 -15 39 -10 62 11 35 33 28 45 -28 46 -36 1 -50 -3 -50
-13z"/>
<path d="M1500 841 c0 -6 5 -13 10 -16 6 -3 10 1 10 9 0 9 -4 16 -10 16 -5 0
-10 -4 -10 -9z"/>
<path d="M1783 835 c-10 -7 -15 -17 -11 -21 4 -4 13 -2 20 3 7 6 22 13 33 15
19 4 19 4 -2 10 -12 3 -30 0 -40 -7z"/>
<path d="M131 830 c0 -8 3 -32 8 -52 6 -28 6 -35 -4 -32 -17 7 -28 -38 -12
-49 7 -5 3 -6 -10 -2 -27 7 -28 2 -8 -28 8 -13 14 -38 12 -56 l-2 -32 -45 6
-45 6 40 -24 c22 -13 61 -30 88 -37 44 -12 53 -21 48 -55 -2 -18 30 29 60 87
30 59 62 165 54 178 -2 4 -23 5 -45 3 -30 -3 -42 0 -46 11 -3 9 -14 16 -23 16
-17 0 -53 35 -64 61 -4 11 -6 11 -6 -1z m103 -98 c3 -5 -1 -9 -9 -9 -8 0 -15
4 -15 9 0 4 4 8 9 8 6 0 12 -4 15 -8z m-43 -35 c-10 -9 -11 -8 -5 6 3 10 9 15
12 12 3 -3 0 -11 -7 -18z m-21 -39 c-25 -9 -36 -5 -26 10 3 6 16 8 28 4 l22
-5 -24 -9z"/>
<path d="M1745 830 c3 -5 8 -10 11 -10 2 0 4 5 4 10 0 6 -5 10 -11 10 -5 0 -7
-4 -4 -10z"/>
<path d="M1190 790 c-13 -8 -13 -11 2 -27 17 -16 19 -16 33 2 8 11 15 23 15
28 0 10 -32 9 -50 -3z"/>
<path d="M1053 664 c-9 -9 -9 -14 3 -18 25 -10 62 -7 70 5 4 7 0 9 -14 5 -11
-4 -26 -1 -34 7 -11 11 -16 12 -25 1z"/>
<path d="M1163 673 c4 -3 2 -12 -3 -18 -7 -9 -6 -16 5 -25 12 -10 15 -10 16 1
0 8 2 22 4 32 2 10 -3 17 -13 17 -8 0 -12 -3 -9 -7z"/>
<path d="M546 589 c-5 -42 -6 -84 -4 -95 3 -10 8 15 12 57 5 42 6 84 4 95 -3
10 -8 -15 -12 -57z"/>
<path d="M635 653 c-17 -3 -23 -20 -39 -102 -25 -132 -11 -150 66 -89 39 31
40 31 33 7 -10 -34 -21 -45 -56 -59 -26 -11 -30 -18 -27 -44 2 -26 7 -31 28
-31 18 0 32 11 49 37 15 23 34 39 52 43 33 7 39 25 10 25 -20 0 -20 1 -1 43
20 46 46 164 38 173 -3 3 -17 2 -31 -1 -19 -5 -27 -15 -32 -43 -13 -69 -61
-139 -81 -119 -3 3 -1 21 5 39 6 18 15 54 20 81 9 49 9 49 -34 40z"/>
<path d="M1220 630 c-11 -11 -23 -20 -28 -20 -4 0 -16 -12 -27 -26 -36 -49
-52 -64 -59 -56 -4 4 -7 3 -6 -3 1 -5 1 -13 0 -17 -1 -5 -4 -11 -5 -15 -16
-50 -31 -72 -47 -67 -9 3 -29 -3 -43 -12 -14 -9 -28 -14 -31 -12 -8 9 35 100
45 94 5 -3 11 4 14 16 4 16 3 18 -6 9 -13 -13 -51 -15 -43 -2 3 5 -3 11 -13
14 -14 3 -19 0 -19 -12 1 -9 -2 -26 -6 -38 -5 -15 -3 -23 4 -23 8 0 10 -16 8
-47 -4 -56 9 -63 50 -28 36 31 46 32 31 4 -8 -15 -8 -19 0 -15 19 12 12 -22
-8 -41 -11 -10 -23 -31 -27 -48 l-7 -30 25 30 c13 17 30 46 38 65 37 95 77
159 137 218 61 59 89 72 77 34 -5 -14 -4 -15 5 -2 6 8 11 23 11 33 0 24 -45
22 -70 -3z"/>
<path d="M1016 614 c-5 -20 -12 -25 -26 -21 -26 7 -25 -8 0 -33 18 -18 20 -18
21 -2 0 14 2 14 9 -3 6 -15 9 -6 9 33 1 57 -3 66 -13 26z"/>
<path d="M318 607 c-4 -9 -5 -32 -3 -50 4 -22 3 -26 -3 -13 -7 15 -12 8 -30
-40 -12 -32 -20 -59 -19 -60 10 -7 86 -10 81 -3 -3 6 -9 49 -12 97 -4 51 -10
80 -14 69z"/>
<path d="M1040 582 c0 -4 7 -15 15 -26 13 -17 16 -17 29 -3 14 14 13 16 -14
26 -17 5 -30 7 -30 3z"/>
<path d="M462 559 c-8 -12 -9 -18 -3 -15 7 4 8 1 5 -8 -3 -9 -10 -14 -14 -13
-9 2 -63 -73 -57 -80 2 -2 23 -1 46 3 l41 7 0 63 c0 35 -1 64 -3 64 -1 0 -8
-9 -15 -21z"/>
<path d="M2525 450 c10 -11 20 -20 23 -20 3 0 -3 9 -13 20 -10 11 -20 20 -23
20 -3 0 3 -9 13 -20z"/>
<path d="M2561 325 c-11 -30 -23 -66 -27 -79 -5 -21 -9 -24 -24 -16 -22 12
-67 -22 -111 -84 -32 -44 -37 -81 -13 -114 22 -32 52 -27 90 15 l34 37 0 -37
c0 -29 4 -37 18 -37 32 0 38 15 38 90 0 64 5 85 33 147 33 71 33 71 15 102
-10 17 -22 31 -25 31 -4 0 -17 -25 -28 -55z m-46 -168 c-8 -42 -56 -104 -73
-93 -9 5 -8 16 4 44 15 36 64 96 71 88 3 -2 1 -20 -2 -39z"/>
<path d="M241 347 c-37 -13 -65 -59 -30 -50 22 6 26 -12 5 -20 -17 -7 -79
-267 -63 -267 2 0 18 5 36 11 29 10 31 14 31 58 0 68 16 85 72 79 42 -5 45 -4
56 24 l11 30 -47 -7 c-26 -4 -53 -12 -59 -17 -20 -16 -16 23 7 77 l20 47 55
-7 c30 -3 55 -3 55 2 0 4 3 18 6 31 6 21 4 22 -57 21 -35 0 -79 -5 -98 -12z"/>
<path d="M1548 335 c-59 -40 -111 -171 -94 -239 10 -41 55 -86 85 -86 29 0
121 53 121 70 0 14 -13 13 -36 -5 -29 -22 -60 -18 -83 11 -26 33 -26 59 0 137
20 59 43 97 60 97 4 0 22 -12 39 -27 l32 -27 19 25 c19 24 19 24 -7 47 -34 30
-89 29 -136 -3z"/>
<path d="M674 272 c-6 -4 -14 -17 -18 -28 -4 -12 -16 -24 -26 -27 -22 -6 -27
-27 -7 -27 11 0 11 -11 -2 -59 -25 -98 10 -149 75 -107 30 20 31 33 2 32 -28
-1 -35 33 -18 93 8 32 15 40 37 43 35 4 43 28 9 28 -30 0 -29 0 -16 34 8 22 7
26 -8 26 -9 0 -22 -4 -28 -8z"/>
<path d="M430 231 c-14 -4 -26 -15 -28 -26 -1 -11 -10 -55 -19 -98 -18 -85
-12 -104 29 -94 13 4 35 18 50 32 35 32 38 31 38 -5 0 -32 2 -33 36 -24 19 5
21 11 16 49 -3 28 1 54 12 76 21 42 20 62 -3 83 -22 20 -41 14 -41 -12 0 -57
-61 -165 -81 -145 -5 5 -2 29 5 53 19 66 28 120 19 119 -4 -1 -19 -4 -33 -8z"/>
<path d="M811 231 c-22 -6 -26 -16 -37 -78 -6 -39 -15 -77 -19 -83 -4 -6 -4
-22 -1 -36 9 -33 39 -31 87 7 l39 31 0 -31 c0 -31 11 -38 44 -25 12 5 15 15
10 43 -4 24 0 51 10 75 21 50 20 69 -3 90 -24 21 -41 13 -41 -18 0 -38 -21
-89 -48 -119 -33 -35 -46 -22 -28 29 18 53 30 124 19 123 -4 -1 -19 -4 -32 -8z"/>
<path d="M1018 233 c-14 -4 -18 -15 -18 -59 0 -30 -7 -69 -16 -85 -14 -28 -14
-33 1 -55 19 -30 37 -27 46 7 28 102 34 114 60 117 20 2 28 11 37 38 17 56
-25 57 -56 0 l-17 -31 -3 38 c-2 20 -6 36 -10 36 -4 -1 -15 -3 -24 -6z"/>
<path d="M1196 219 c-16 -12 -37 -41 -47 -63 -50 -110 8 -181 101 -125 63 38
70 69 8 38 -40 -20 -42 -20 -55 -3 -21 29 -15 41 25 49 65 12 84 30 80 78 -3
41 -4 42 -44 45 -29 2 -47 -3 -68 -19z m54 -39 c0 -23 -6 -33 -22 -39 -29 -11
-33 0 -13 38 20 39 35 40 35 1z"/>
<path d="M1749 195 c-71 -73 -85 -117 -53 -163 22 -31 42 -28 86 15 l38 37 0
-31 c0 -36 11 -47 38 -39 15 5 18 17 18 69 0 34 6 77 14 94 13 30 13 35 -2 50
-14 13 -20 14 -32 4 -11 -9 -20 -10 -35 -2 -27 15 -23 16 -72 -34z m72 -41
c-11 -42 -56 -98 -71 -89 -17 10 37 119 63 128 18 7 19 2 8 -39z"/>
<path d="M1963 233 c-20 -4 -23 -10 -23 -55 0 -27 -7 -65 -16 -84 -15 -31 -15
-36 0 -59 22 -33 44 -32 52 3 18 81 27 105 45 123 26 26 43 25 35 -3 -13 -44
-29 -138 -25 -142 11 -11 59 8 59 24 0 9 9 52 20 95 18 69 18 81 6 93 -19 19
-55 10 -89 -22 l-27 -25 0 29 c0 17 -3 29 -7 29 -5 -1 -18 -4 -30 -6z"/>
<path d="M2208 193 c-76 -79 -89 -120 -50 -165 22 -27 42 -22 84 19 37 36 38
36 38 13 0 -36 14 -53 37 -46 16 5 19 16 19 69 0 34 6 77 14 94 13 30 13 35
-2 50 -14 13 -20 14 -32 4 -11 -9 -20 -10 -35 -2 -26 14 -21 17 -73 -36z m72
-37 c-9 -40 -63 -106 -73 -89 -12 19 63 146 78 131 2 -2 0 -21 -5 -42z"/>
<path d="M2668 193 c-71 -74 -84 -115 -52 -161 22 -32 48 -27 88 15 35 37 36
37 36 13 0 -37 14 -53 39 -45 18 6 20 11 15 46 -5 28 -1 58 12 95 17 50 17 55
2 71 -14 13 -20 14 -32 4 -11 -9 -20 -10 -35 -2 -26 14 -21 17 -73 -36z m72
-37 c-9 -39 -56 -99 -71 -90 -13 8 18 75 48 106 15 15 28 27 29 25 2 -1 -1
-20 -6 -41z"/>
</g>
</svg>
