<?xml version="1.0" standalone="no"?>
<!DOCTYPE svg PUBLIC "-//W3C//DTD SVG 20010904//EN"
 "http://www.w3.org/TR/2001/REC-SVG-20010904/DTD/svg10.dtd">
<svg version="1.0" xmlns="http://www.w3.org/2000/svg"
 width="1024.000000pt" height="1024.000000pt" viewBox="0 0 1024.000000 1024.000000"
 preserveAspectRatio="xMidYMid meet">

<g transform="translate(0.000000,1024.000000) scale(0.100000,-0.100000)"
fill="#000000" stroke="none">
<path d="M0 7230 c0 -1841 4 -3010 9 -3010 5 0 12 9 16 19 3 11 16 23 28 27
12 4 27 13 32 21 12 16 74 32 123 33 29 0 32 3 32 30 0 28 2 30 40 30 22 0 40
5 40 10 0 6 -5 10 -11 10 -5 0 -7 5 -4 10 4 6 2 16 -3 23 -5 7 -12 26 -14 42
-3 17 -3 24 -1 18 10 -29 23 -10 23 32 0 38 3 44 17 39 10 -4 5 4 -12 16 -27
19 -27 21 -7 17 18 -4 21 -3 12 8 -9 10 1 18 47 35 32 12 62 25 68 30 6 5 31
12 56 17 45 8 45 8 37 39 -8 31 -9 31 -40 20 -18 -6 -37 -14 -43 -17 -5 -3
-32 -12 -60 -19 -27 -7 -55 -17 -61 -22 -6 -4 -19 -6 -28 -2 -9 3 -16 2 -16
-3 0 -13 -83 -35 -105 -28 -16 6 -17 5 -5 -3 12 -9 9 -13 -15 -22 -17 -7 -40
-13 -52 -13 -11 -1 -19 -5 -16 -9 2 -5 -2 -8 -10 -8 -8 0 -13 11 -13 29 1 34
16 55 16 23 0 -25 15 -29 24 -7 3 8 0 15 -7 15 -8 0 -8 3 2 9 8 5 12 18 8 30
-4 18 -1 21 24 21 30 0 35 12 23 57 -7 27 -21 30 -27 6 -4 -17 -5 -17 -6 0 0
9 -8 17 -16 17 -19 0 -19 0 1 39 15 31 17 31 35 15 18 -16 19 -16 19 4 0 19 6
22 40 22 22 0 40 5 40 10 0 6 12 10 26 10 29 0 54 21 54 44 0 11 10 16 31 16
26 0 29 2 20 14 -10 12 -8 17 9 26 21 11 21 12 3 25 -17 13 -17 14 0 15 13 0
17 9 17 40 0 29 4 40 15 40 11 0 15 11 15 40 0 29 -4 40 -15 40 -8 0 -15 -9
-15 -20 0 -21 -16 -26 -39 -11 -18 11 -5 31 20 31 10 0 19 7 19 15 0 11 11 15
40 15 29 0 40 -4 40 -15 0 -8 7 -15 15 -15 15 0 10 29 -8 42 -14 9 17 38 40
38 14 0 15 2 4 9 -16 10 -6 31 15 31 17 0 19 26 2 33 -7 3 2 6 20 6 28 1 32 4
32 27 0 21 -4 25 -20 21 -13 -3 -20 0 -20 10 0 9 -6 13 -15 10 -8 -4 -17 -2
-20 3 -4 6 -15 10 -26 10 -16 0 -19 7 -19 40 l0 40 -40 0 c-28 0 -40 4 -40 14
0 19 -28 27 -98 31 -32 1 -69 6 -85 10 -23 6 -26 4 -21 -9 7 -19 -9 -21 -24
-3 -9 10 8 19 76 42 48 15 92 32 97 35 6 4 80 33 165 65 85 32 203 80 262 107
154 69 620 248 646 248 7 0 -61 85 -101 127 -29 30 -38 47 -34 63 4 17 -4 25
-51 49 -55 29 -131 99 -145 134 -4 11 -3 16 3 12 6 -3 10 0 10 8 0 7 -29 39
-64 70 -72 64 -86 90 -62 116 22 24 21 29 -17 45 -50 20 -104 73 -117 112 -10
29 -9 43 4 79 10 24 24 46 32 49 22 9 9 23 -42 45 -71 32 -102 58 -109 94 -4
17 -27 53 -50 78 -47 50 -75 98 -75 127 0 11 14 25 37 36 l38 18 -25 17 c-97
64 -149 131 -153 199 -2 24 3 28 46 42 l48 15 -55 47 c-60 52 -90 112 -84 169
l3 34 68 5 69 5 -33 30 c-71 67 -139 218 -139 309 0 28 1 28 43 24 26 -3 66
-19 98 -40 30 -19 65 -40 77 -47 l23 -12 -17 38 c-57 135 -76 195 -103 329
-18 88 -31 190 -33 249 -3 94 -2 100 17 103 22 3 200 -173 322 -319 35 -42 93
-98 129 -124 67 -50 73 -69 19 -63 -19 2 -31 0 -28 -5 6 -11 -30 0 -67 18 -14
7 -63 54 -108 104 -92 100 -143 142 -150 123 -2 -7 -7 -10 -11 -7 -14 8 -5
-49 17 -113 12 -34 20 -73 17 -85 -3 -13 3 -39 16 -62 78 -144 79 -146 63
-177 -16 -32 -17 -29 44 -113 53 -73 41 -83 -46 -37 -73 38 -180 77 -189 68
-10 -10 49 -122 94 -181 31 -40 53 -56 109 -80 39 -17 95 -46 125 -65 52 -34
53 -35 26 -38 -16 -2 -47 4 -70 13 -41 17 -224 55 -260 55 -18 0 -18 -1 0 -29
10 -16 54 -68 98 -115 79 -86 137 -126 202 -141 18 -3 35 -11 38 -16 4 -5 14
-9 24 -9 10 0 24 -6 30 -14 13 -16 96 -61 151 -82 l35 -14 -35 6 c-19 3 -66
17 -105 31 -100 35 -315 93 -347 93 -16 0 -28 -3 -28 -7 0 -4 44 -52 98 -106
105 -106 106 -110 30 -123 -21 -4 -38 -10 -38 -14 0 -3 12 -17 26 -31 14 -13
41 -44 59 -69 19 -25 59 -63 89 -84 31 -21 65 -53 76 -71 18 -29 27 -33 87
-43 77 -11 146 -35 151 -51 2 -6 0 -12 -5 -12 -36 -6 -70 -4 -80 4 -9 6 -13 6
-13 -2 0 -6 -13 -11 -28 -11 -16 0 -32 -3 -36 -7 -4 -4 -22 -6 -39 -5 -18 2
-43 -1 -55 -5 l-23 -9 28 -28 c52 -52 104 -76 186 -82 67 -6 77 -9 77 -26 0
-25 -55 -48 -115 -48 -25 0 -45 -4 -45 -9 0 -17 34 -44 87 -68 44 -20 65 -24
130 -21 70 3 78 1 81 -16 5 -25 -30 -52 -90 -67 -54 -14 -58 -22 -24 -44 20
-14 39 -15 115 -8 120 12 110 -4 -27 -43 -7 -2 -11 -8 -8 -13 11 -18 88 -23
172 -11 129 18 128 -3 -1 -41 -116 -34 -113 -32 -76 -58 44 -32 102 -36 196
-17 43 9 80 14 83 12 8 -9 -60 -44 -129 -66 -38 -12 -69 -26 -69 -31 0 -21 56
-31 140 -24 98 8 140 8 149 -1 10 -10 -29 -33 -86 -49 -38 -11 -53 -20 -53
-33 0 -50 77 -56 183 -14 161 64 185 44 36 -29 -93 -46 -116 -71 -71 -77 20
-3 187 35 236 54 13 5 17 3 15 -5 -5 -14 -53 -42 -124 -72 l-50 -20 25 -19
c29 -23 64 -25 143 -9 31 6 64 8 74 5 16 -7 15 -10 -10 -32 -15 -13 -35 -24
-43 -24 -17 0 -19 -31 -2 -48 15 -15 81 -15 148 -1 62 13 84 1 51 -27 -26 -23
-27 -50 -1 -64 24 -13 74 -1 159 36 31 14 65 23 75 20 11 -3 26 0 33 6 8 6 16
8 19 5 3 -3 -30 -30 -73 -60 -139 -98 -144 -121 -27 -118 76 2 120 12 212 48
92 37 89 19 -4 -22 -43 -20 -97 -44 -119 -54 -22 -10 -60 -24 -84 -31 -24 -8
-76 -30 -115 -50 -120 -61 -476 -286 -561 -355 l-30 -25 60 0 c103 0 108 -28
10 -50 -31 -7 -164 -12 -350 -13 -202 0 -302 -4 -307 -11 -5 -7 -8 -7 -8 2 0
6 -7 12 -16 12 -9 0 -12 -5 -8 -12 5 -7 3 -8 -7 -2 -16 10 -89 14 -89 5 0 -4
-19 -5 -41 -3 -31 3 -40 1 -34 -8 6 -9 3 -9 -13 -1 -15 8 -22 8 -25 -2 -4 -9
-6 -9 -6 1 -1 8 -6 10 -13 6 -7 -4 -27 -7 -44 -6 -48 4 -68 -21 -60 -76 3 -25
6 -52 6 -62 0 -9 16 -24 35 -33 19 -9 35 -20 35 -25 0 -4 -56 -8 -124 -7 -68
0 -128 -3 -132 -8 -4 -4 -1 -30 8 -57 19 -57 15 -62 -55 -75 -21 -4 -41 -14
-44 -23 -9 -23 26 -80 64 -103 18 -11 33 -25 33 -29 0 -5 -19 -14 -42 -20 -56
-14 -128 -47 -128 -59 0 -11 80 -81 92 -81 19 0 5 -26 -32 -57 -57 -49 -54
-74 10 -101 36 -15 51 -27 56 -46 9 -36 32 -33 122 13 135 68 246 119 287 131
22 6 108 15 190 20 87 5 182 17 226 29 140 36 322 144 426 252 23 24 60 79 83
121 45 85 88 128 126 128 24 0 23 -2 -23 -60 -26 -34 -67 -84 -90 -113 -54
-69 -177 -185 -211 -200 -15 -6 -65 -33 -110 -60 -46 -28 -127 -68 -180 -90
-96 -40 -99 -40 -262 -47 -187 -8 -194 -10 -317 -92 -51 -34 -98 -58 -123 -62
-31 -5 -59 -22 -113 -69 -40 -34 -106 -84 -148 -110 -72 -45 -97 -75 -82 -100
4 -6 58 -8 142 -4 210 9 525 74 640 131 25 13 84 36 131 51 142 46 187 75 296
192 54 59 144 145 199 192 115 99 359 268 329 229 -19 -25 -76 -71 -204 -165
-113 -83 -304 -277 -218 -221 21 13 52 18 131 21 17 1 27 7 27 17 0 11 2 12 8
3 5 -9 23 -11 52 -7 25 3 54 6 65 7 11 0 23 6 27 11 5 7 8 7 8 -1 0 -7 7 -10
15 -7 11 5 12 11 5 27 -10 21 -10 21 6 -1 18 -24 44 -30 44 -10 0 9 3 9 11 1
14 -14 52 -4 45 12 -6 16 16 26 34 15 7 -4 24 -3 37 3 18 8 20 13 11 24 -9 11
-6 12 16 3 35 -13 63 -13 50 -1 -10 11 -151 48 -199 53 -37 4 -73 24 -62 34
11 12 57 11 57 -1 0 -6 3 -5 8 2 9 14 62 12 62 -2 0 -5 5 -3 10 5 5 8 10 10
10 3 0 -13 18 -12 39 1 10 7 12 5 6 -4 -6 -9 -2 -10 15 -5 12 4 20 3 17 -1 -3
-5 6 -10 20 -11 19 -1 22 1 12 8 -9 6 -10 9 -2 9 6 0 15 -4 18 -10 11 -17 96
-12 117 7 11 10 19 13 18 8 -2 -6 -2 -17 -1 -25 1 -13 2 -13 11 0 9 13 10 13
10 0 0 -13 1 -13 10 0 8 12 10 12 10 1 0 -11 3 -11 15 -1 12 10 15 10 15 -1 0
-12 2 -11 9 0 5 8 19 16 31 18 12 2 19 -1 15 -7 -9 -14 8 -13 23 2 9 9 12 9
12 0 0 -7 5 -12 11 -12 5 0 7 5 4 10 -7 11 17 10 25 -1 5 -6 205 11 290 25 19
3 67 8 105 11 39 4 90 11 115 17 50 11 57 12 150 28 114 19 400 92 394 101 -3
5 2 6 10 3 34 -13 596 169 927 301 231 92 586 264 684 331 39 26 95 58 125 72
108 49 275 147 255 150 -91 12 -130 27 -219 87 -53 35 -96 59 -96 54 0 -6 -5
-7 -10 -4 -6 4 -8 10 -6 14 3 3 -8 7 -22 6 -16 0 -26 5 -24 13 1 6 -3 12 -9
12 -5 0 -8 4 -5 8 3 5 -14 31 -38 58 -58 66 -114 155 -148 234 -35 83 -37 50
-1 -38 32 -82 42 -98 116 -191 40 -50 56 -76 49 -83 -25 -25 -121 63 -197 182
-43 65 -95 197 -95 239 0 11 -5 23 -11 27 -14 8 -5 -59 18 -131 23 -72 52
-126 128 -240 49 -74 63 -101 51 -103 -8 -2 -27 5 -41 14 -36 24 -167 200
-196 263 -24 55 -44 69 -33 24 18 -69 84 -194 142 -266 21 -27 30 -67 15 -67
-23 0 -85 67 -141 154 -72 110 -107 189 -122 269 l-9 52 5 -60 c7 -82 38 -184
86 -278 28 -55 38 -85 34 -103 -4 -13 -11 -24 -16 -24 -17 0 -71 82 -116 175
-49 104 -74 194 -74 278 0 35 -4 57 -11 57 -15 0 -4 -155 17 -237 8 -32 19
-74 23 -93 4 -19 24 -62 44 -95 37 -60 46 -98 26 -110 -6 -4 -8 -14 -5 -24 16
-44 -87 105 -126 184 -58 115 -80 345 -44 467 18 64 38 80 115 93 39 6 307
108 321 122 3 3 -12 2 -33 -2 -31 -6 -44 -3 -75 18 -49 34 -118 63 -167 71
l-40 6 45 -26 c43 -24 110 -81 110 -94 0 -3 -9 -11 -20 -18 -17 -11 -26 -6
-75 38 -46 42 -121 90 -140 90 -3 0 15 -25 40 -55 71 -88 57 -98 -51 -35 -42
24 -86 42 -112 44 -23 2 -63 16 -89 31 -27 16 -93 53 -148 83 -55 30 -111 62
-125 72 -14 10 -83 52 -155 95 -71 43 -164 101 -205 129 -332 230 -353 248
-424 370 -22 37 -48 71 -58 77 -10 5 -18 16 -18 24 0 8 -5 15 -11 15 -6 0 -9
8 -7 18 2 9 -8 40 -23 67 -25 47 -39 95 -54 188 -3 20 -9 37 -13 37 -12 0 -42
-100 -44 -150 -3 -37 -7 -46 -24 -48 -29 -4 -133 75 -239 183 -126 128 -350
400 -413 503 -64 103 -242 464 -266 540 -10 28 -20 52 -22 52 -9 0 9 -75 27
-115 18 -40 35 -125 26 -125 -6 0 -57 152 -80 240 -23 85 -36 158 -42 245 -4
44 -8 87 -10 95 -3 8 -11 87 -20 175 -8 88 -20 182 -26 208 -11 48 -11 48 -31
30 -45 -39 -61 -100 -66 -243 -6 -182 18 -377 64 -524 39 -124 84 -336 72
-336 -14 0 -65 88 -78 135 -7 24 -15 43 -19 41 -3 -2 -7 12 -7 33 -1 20 -18
77 -37 128 -56 144 -79 265 -85 443 -2 92 0 185 7 228 12 78 51 167 98 222 33
39 109 90 135 90 27 0 35 -30 47 -175 46 -509 96 -721 249 -1035 124 -256 234
-417 458 -670 139 -157 202 -217 208 -199 2 8 9 30 15 50 11 33 157 209 182
218 21 7 29 -24 29 -119 0 -102 6 -140 22 -140 6 0 24 -11 40 -25 16 -14 34
-23 39 -19 5 3 9 -1 9 -8 0 -8 14 -19 30 -25 23 -9 29 -17 28 -35 -2 -16 2
-23 13 -22 11 1 15 -5 12 -17 -4 -16 1 -19 28 -21 93 -4 129 15 155 85 3 9 12
17 19 17 8 0 21 18 31 40 10 21 25 41 33 43 10 3 7 5 -7 6 -20 1 -21 4 -12 21
13 24 30 26 30 4 0 -8 5 -12 11 -9 6 4 9 33 7 71 -2 49 -7 64 -18 64 -37 1
-42 17 -15 44 26 26 27 50 0 40 -8 -3 -23 1 -35 9 -20 14 -19 15 22 30 60 21
106 28 110 16 2 -6 14 -1 28 11 33 29 107 60 144 61 17 0 65 -7 106 -16 113
-24 128 -20 166 44 18 30 30 59 27 64 -3 6 -1 7 5 3 7 -4 12 -3 12 2 0 19 98
52 153 52 41 0 63 -6 91 -25 20 -14 39 -25 41 -25 2 0 5 51 7 113 3 105 6 117
40 189 41 87 139 198 175 198 24 0 162 -144 164 -170 0 -8 12 27 25 79 35 130
68 204 125 282 55 74 185 202 198 194 5 -2 32 -75 62 -160 l53 -156 13 50 c7
28 33 90 59 138 88 165 182 274 311 361 60 41 87 50 96 34 10 -15 -11 -664
-28 -872 -10 -118 -18 -216 -19 -216 0 -1 -26 -4 -57 -6 l-56 -4 -6 290 c-5
267 -7 295 -26 336 -11 25 -21 39 -21 33 0 -21 -20 -15 -20 6 0 10 -7 24 -15
31 -20 17 -19 57 2 69 10 5 14 13 10 17 -4 4 -14 -1 -22 -12 -30 -38 -103
-201 -121 -269 -12 -45 -27 -78 -43 -93 l-25 -23 18 -107 c10 -59 33 -169 52
-244 19 -75 34 -141 34 -146 0 -4 -27 -13 -60 -18 -60 -10 -61 -10 -66 15 -3
14 -26 89 -51 166 -52 162 -128 455 -139 534 -7 53 -7 53 -21 28 -7 -15 -25
-38 -38 -53 -37 -40 -82 -138 -104 -228 -22 -86 -32 -99 -73 -92 -27 5 -38 -7
-18 -19 17 -11 280 -462 280 -481 0 -5 -19 -18 -41 -29 l-42 -20 -45 50 c-41
45 -232 327 -327 482 l-38 63 -18 -33 c-60 -107 -77 -151 -83 -215 -10 -92
-14 -102 -47 -116 l-30 -13 40 -27 c50 -35 192 -182 249 -258 24 -31 50 -59
58 -62 9 -3 12 -11 8 -18 -5 -8 -2 -9 10 -5 11 4 15 3 10 -4 -4 -6 -1 -15 6
-19 7 -5 -7 -9 -35 -12 -26 -2 -49 0 -51 3 -2 4 -12 5 -22 3 -19 -5 -41 8
-127 76 -32 25 -67 52 -79 60 -12 8 -55 42 -96 75 -74 59 -76 60 -140 61 -36
0 -74 4 -86 8 -17 6 -23 1 -37 -31 -9 -21 -19 -53 -22 -70 -4 -18 -20 -59 -36
-91 -50 -102 -51 -100 81 -148 191 -68 195 -71 163 -106 -12 -15 -13 -19 -3
-13 12 6 13 5 2 -6 -16 -18 -100 -3 -289 51 -78 22 -155 40 -172 40 -56 0 -77
-38 -83 -149 -3 -43 -4 -44 -50 -56 -26 -6 -63 -24 -83 -39 -34 -26 -36 -31
-34 -78 l3 -51 -46 -23 c-25 -13 -60 -40 -77 -61 l-32 -38 28 -24 c39 -32 382
-258 473 -311 41 -24 89 -54 105 -66 17 -13 60 -36 95 -52 63 -29 70 -30 275
-36 212 -7 391 -25 520 -52 146 -31 128 -38 172 57 22 46 55 107 75 134 72
102 80 137 32 149 -14 4 -23 10 -20 14 2 4 -3 8 -12 9 -9 1 -54 15 -99 31
l-82 29 70 51 c58 42 85 54 162 73 102 24 150 21 185 -11 20 -19 21 -19 44 0
13 11 18 19 11 20 -26 0 -183 110 -183 128 0 24 19 42 45 42 53 0 165 -91 165
-134 0 -14 3 -14 20 -4 11 7 20 16 20 21 0 18 -96 109 -142 135 -26 15 -48 30
-48 33 0 4 9 18 21 33 26 33 87 36 129 6 37 -26 74 -113 67 -160 l-5 -36 139
69 c154 76 228 134 271 214 34 63 43 93 27 93 -19 0 -128 -59 -178 -96 -25
-19 -68 -62 -96 -96 -27 -34 -60 -67 -72 -75 -20 -14 -23 -12 -39 18 -23 46
-15 188 14 245 28 55 105 122 150 130 29 6 39 3 54 -16 10 -12 18 -39 18 -59
l1 -36 15 30 c45 85 114 201 176 292 37 56 73 114 78 129 10 26 61 137 82 178
7 13 6 16 -2 11 -7 -4 -10 11 -9 51 2 48 13 78 72 198 38 78 117 212 174 298
58 86 103 163 100 170 -6 17 11 48 26 48 7 0 18 14 24 30 6 17 16 29 21 28 14
-4 127 125 113 130 -17 6 -104 -51 -194 -125 -75 -62 -168 -166 -283 -320 -63
-83 -64 -83 -64 -49 0 44 73 190 140 277 54 72 192 207 274 269 71 53 190 115
259 135 32 9 101 20 155 24 165 13 163 -7 -18 -195 -71 -73 -147 -157 -169
-186 -22 -29 -57 -75 -78 -103 -84 -109 -343 -517 -343 -540 0 -4 -42 -84 -93
-178 -52 -95 -102 -189 -111 -211 -10 -21 -46 -80 -80 -130 -35 -50 -68 -101
-74 -113 l-12 -22 42 19 c52 24 88 26 88 5 0 -29 -63 -212 -99 -285 -59 -123
-116 -172 -319 -274 -162 -82 -177 -92 -260 -174 -48 -48 -113 -125 -144 -172
-61 -93 -154 -267 -146 -275 3 -3 65 -14 139 -25 178 -27 495 -43 607 -31 48
6 146 13 217 16 72 3 193 10 270 16 787 56 963 92 1325 266 203 98 280 128
419 165 101 27 133 31 246 31 124 -1 135 -2 240 -38 110 -37 205 -86 239 -124
21 -23 88 -47 161 -57 28 -3 79 -18 115 -32 57 -22 79 -25 179 -24 129 1 176
-12 216 -60 31 -37 34 -99 5 -146 -43 -70 -138 -109 -475 -197 -99 -26 -252
-69 -340 -97 -340 -106 -487 -127 -1175 -168 -184 -11 -342 -22 -350 -25 -8
-2 -108 -18 -223 -35 -378 -55 -627 -118 -815 -205 -99 -47 -341 -181 -408
-226 -23 -16 -88 -50 -145 -77 -58 -27 -156 -79 -219 -117 -63 -37 -173 -96
-245 -131 -137 -67 -182 -91 -360 -191 -135 -76 -133 -75 -385 -172 -328 -126
-900 -313 -1155 -377 -55 -14 -134 -36 -176 -49 -49 -15 -156 -33 -310 -50
-129 -15 -261 -30 -294 -34 l-60 -8 85 -1 c56 -1 99 -7 125 -18 22 -9 53 -20
70 -23 24 -6 -7 -19 -180 -75 -116 -38 -253 -85 -306 -107 -64 -25 -106 -36
-126 -33 -25 4 -36 -1 -59 -28 -23 -26 -45 -37 -104 -52 -189 -48 -280 -83
-340 -130 -56 -44 -127 -84 -214 -120 -23 -10 -67 -16 -111 -16 -88 0 -185
-32 -185 -61 0 -10 -6 -21 -12 -26 -36 -23 -362 -151 -493 -193 -82 -27 -217
-71 -300 -98 -82 -27 -240 -79 -350 -115 l-200 -65 -3 -1561 -2 -1561 5120 0
5120 0 0 5120 0 5120 -5120 0 -5120 0 0 -3010z m1481 2327 c12 -40 43 -124 69
-187 26 -63 53 -133 60 -155 12 -38 25 -67 120 -270 20 -44 60 -120 89 -170
56 -98 62 -116 29 -85 -35 32 -49 26 -46 -20 1 -28 -5 -49 -21 -70 l-22 -31
20 -28 c12 -16 30 -51 41 -77 l20 -49 -28 33 c-91 105 -235 427 -293 656 -34
136 -50 177 -77 207 -25 26 -32 16 -42 -67 -10 -77 -1 -146 39 -322 31 -132
52 -193 130 -371 49 -113 32 -104 -66 36 -92 132 -116 192 -158 398 -34 166
-37 190 -32 305 5 155 28 234 88 303 22 26 45 45 50 42 4 -3 18 -38 30 -78z
m5190 -234 c-11 -33 -43 -108 -70 -165 -68 -143 -129 -297 -156 -393 -12 -44
-59 -183 -103 -310 -44 -126 -86 -253 -92 -282 -6 -28 -17 -59 -25 -69 -12
-17 -14 -17 -38 -1 -15 9 -34 17 -43 17 -14 0 -16 8 -11 49 9 74 92 416 121
496 42 119 57 182 60 249 1 36 -1 62 -4 58 -8 -11 -43 -8 -47 4 -4 13 25 39
34 30 4 -3 -2 -13 -13 -21 -17 -14 -17 -14 10 -3 l28 12 -21 17 c-20 17 -30
36 -12 25 5 -3 15 2 22 12 13 15 12 16 -3 3 -10 -7 -18 -10 -18 -6 0 4 -7 2
-15 -5 -8 -7 -12 -17 -8 -23 3 -5 1 -7 -5 -4 -22 14 -133 -142 -197 -278 -37
-79 -37 -80 -47 -50 -21 69 14 171 109 314 107 160 264 300 394 351 76 30 153
49 162 40 5 -4 -1 -34 -12 -67z m-5892 -67 c41 -22 260 -253 369 -390 53 -66
117 -143 143 -171 25 -27 52 -61 58 -73 14 -26 5 -45 -9 -22 -6 8 -10 11 -11
5 -2 -18 2 -69 7 -97 4 -21 2 -28 -10 -28 -9 0 -30 12 -47 28 -28 24 -259 326
-301 393 -24 37 -115 135 -121 129 -14 -14 70 -226 151 -382 89 -173 118 -243
102 -253 -4 -3 -30 26 -58 63 -27 37 -67 90 -89 118 -66 86 -179 326 -202 429
-24 109 -35 215 -26 244 8 25 8 25 44 7z m5138 -1212 c-3 -20 -14 -45 -24 -56
-17 -19 -125 -88 -137 -88 -3 0 -6 15 -6 34 0 24 11 49 37 83 45 60 49 63 97
63 l39 0 -6 -36z m426 -75 c21 -34 0 -65 -59 -90 -31 -12 -79 -38 -106 -56
-27 -19 -52 -32 -55 -29 -10 9 52 109 95 153 37 38 47 44 79 41 20 -2 40 -10
46 -19z m-716 -41 c7 -6 13 -27 13 -48 0 -33 -3 -38 -27 -43 -16 -3 -45 -10
-66 -15 -31 -8 -39 -7 -44 4 -8 22 5 60 32 93 20 23 31 28 52 25 15 -3 33 -10
40 -16z m415 -81 l26 -12 -20 -63 c-14 -47 -23 -62 -34 -58 -8 3 -20 -3 -26
-14 -7 -11 -19 -20 -26 -20 -7 0 -15 -6 -18 -13 -2 -7 -13 -13 -24 -14 -16 -1
-20 5 -20 26 0 48 28 122 56 152 30 32 45 34 86 16z m-2295 -3 c-3 -3 -12 -4
-19 -1 -8 3 -5 6 6 6 11 1 17 -2 13 -5z m2074 -104 c17 -9 19 -22 19 -101 0
-57 -5 -100 -14 -117 -7 -15 -17 -46 -21 -70 -4 -26 -11 -40 -18 -35 -7 4 -8
0 -3 -13 5 -13 4 -16 -3 -9 -5 6 -14 28 -20 50 -5 22 -17 69 -26 105 -35 137
8 231 86 190z m-171 -101 c6 -10 6 -27 1 -40 -6 -18 -17 -24 -45 -25 l-36 -2
0 44 c0 37 4 46 23 53 24 9 41 0 57 -30z m-167 -56 c24 -27 67 -118 67 -142 0
-19 -2 -20 -22 -9 -12 7 -28 19 -36 26 -12 11 -20 13 -54 16 -30 2 -31 40 -1
99 16 32 24 33 46 10z m-533 -68 c5 3 14 -4 20 -15 11 -21 4 -25 -24 -14 -9 3
-16 16 -15 28 0 11 3 15 6 8 2 -6 9 -10 13 -7z m391 -56 c11 -5 33 -28 49 -51
30 -42 39 -65 19 -53 -6 4 -27 7 -47 7 -47 0 -122 32 -122 53 0 8 15 24 33 35
37 23 42 24 68 9z m-3354 -53 c0 -8 -6 -12 -14 -9 -7 3 -13 11 -13 19 0 7 6
11 13 8 8 -3 14 -11 14 -18z m2859 15 c-4 -5 0 -12 6 -14 10 -4 9 -8 -2 -16
-11 -8 -16 -7 -18 4 -4 18 -14 19 -30 3 -7 -7 -12 -8 -12 -2 0 16 22 34 43 34
10 0 16 -4 13 -9z m66 -21 c-1 -14 -7 -29 -12 -34 -7 -7 -8 1 -4 22 6 28 4 31
-11 25 -13 -4 -16 -3 -11 6 14 21 41 8 38 -19z m53 10 c3 -5 2 -10 -4 -10 -5
0 -12 -8 -14 -17 -3 -11 -5 -7 -6 10 -1 27 12 36 24 17z m-90 -29 c-3 -6 -11
-11 -17 -11 -6 0 -6 6 2 15 14 17 26 13 15 -4z m-2819 -28 c-7 -7 -65 20 -60
28 3 5 18 2 34 -8 16 -9 28 -18 26 -20z m3158 -23 c19 -6 18 -7 -2 -12 -12 -4
-20 -2 -16 3 9 16 -5 10 -26 -11 -22 -22 -86 -29 -74 -7 27 48 49 53 118 27z
m-531 -31 c-3 -11 -11 -18 -18 -15 -16 6 -27 -31 -11 -38 6 -3 2 -5 -9 -3 -30
4 -27 48 5 64 34 17 39 16 33 -8z m-2051 -206 c20 -14 44 -23 53 -19 8 3 15 1
15 -4 0 -17 16 -11 62 24 l45 35 6 -103 c3 -57 16 -145 28 -196 l22 -94 23 45
c13 24 30 77 39 117 10 39 21 72 26 72 5 0 9 -4 9 -8 0 -12 39 -52 50 -52 5 0
15 20 21 44 l11 45 22 -26 c21 -25 23 -25 53 -10 16 9 36 30 43 47 7 16 16 30
20 30 4 0 12 -43 18 -96 12 -104 17 -116 62 -134 l30 -12 -39 -28 c-45 -33
-79 -74 -87 -107 -4 -12 -10 -23 -15 -23 -5 0 -9 -5 -9 -11 0 -5 4 -8 9 -5 12
8 19 -13 13 -36 -2 -10 -28 -36 -58 -58 -30 -22 -54 -42 -54 -43 0 -1 20 -3
43 -3 55 -2 119 -22 114 -37 -2 -7 -66 -25 -143 -40 -76 -16 -143 -32 -148
-37 -5 -5 8 -45 33 -95 40 -85 50 -125 32 -125 -17 0 -58 62 -90 133 -17 38
-34 67 -38 65 -27 -12 -195 -92 -226 -109 -22 -10 -40 -19 -42 -19 -2 0 -2 30
-2 68 l2 67 -77 -2 c-43 -1 -78 0 -78 2 0 7 72 45 86 45 8 0 13 4 10 8 -3 5
-55 12 -116 15 -61 3 -117 10 -124 16 -7 6 -17 7 -21 3 -4 -4 0 8 11 26 24 42
17 53 -74 117 -40 28 -72 53 -72 58 0 4 23 7 51 7 29 0 69 5 90 12 32 9 42 9
56 -4 10 -9 28 -19 41 -23 l23 -7 -19 39 c-20 40 -36 93 -28 93 3 0 60 -23
127 -50 67 -28 124 -48 127 -45 20 20 -83 148 -200 249 -43 37 -78 72 -78 77
0 11 -6 12 60 -6 68 -18 120 -19 120 -2 0 6 -7 66 -15 132 -8 65 -15 120 -15
120 0 0 28 -26 62 -58 34 -33 79 -70 100 -84z m-1835 111 c-3 -3 -12 -4 -19
-1 -8 3 -5 6 6 6 11 1 17 -2 13 -5z m4700 -71 c50 -26 51 -39 6 -54 -55 -19
-353 -17 -353 2 0 13 47 41 104 61 66 24 188 19 243 -9z m-950 -1005 c4 -7 9
-78 10 -158 1 -80 4 -163 6 -185 2 -22 1 -49 -3 -59 -12 -33 -40 57 -52 169
-9 80 -9 118 1 174 13 69 22 84 38 59z m-245 -90 c-13 -62 -4 -318 11 -318 5
0 5 -4 2 -10 -3 -5 3 -30 14 -55 11 -25 17 -45 13 -45 -4 0 0 -5 8 -11 13 -9
13 -10 0 -6 -8 2 -23 0 -32 -4 -11 -6 -19 -5 -24 3 -4 6 -3 8 3 5 6 -4 16 0
23 8 11 13 10 14 -6 8 -17 -6 -17 -5 -5 10 8 10 11 20 8 23 -5 5 -37 -47 -37
-60 0 -2 7 -11 15 -19 13 -13 11 -16 -12 -22 -20 -5 -31 -2 -40 11 -7 10 -13
13 -13 7 0 -5 9 -20 19 -32 18 -21 20 -21 30 -4 6 10 11 14 11 10 0 -4 9 -3
20 3 11 6 17 16 14 25 -4 8 -2 15 4 15 17 0 22 -28 6 -40 -16 -14 -19 -35 -4
-25 6 3 10 -1 10 -9 0 -20 -26 -21 -34 -1 -3 8 -11 15 -18 15 -7 0 15 -27 50
-60 34 -33 58 -60 53 -60 -5 0 -33 22 -62 49 -47 44 -54 48 -65 33 -22 -33
-26 -62 -10 -68 9 -3 16 -10 16 -15 0 -4 -7 -6 -15 -3 -8 4 -23 0 -32 -7 -15
-12 -16 -11 -11 9 4 14 2 22 -5 21 -33 -4 -39 1 -33 29 5 20 4 23 -3 12 -15
-23 -36 10 -66 104 -20 62 -22 82 -13 88 10 6 10 8 1 8 -7 0 -13 7 -13 16 0
11 5 14 16 10 14 -5 15 -4 4 9 -10 11 -10 18 -1 29 8 10 9 16 1 21 -5 3 -10
11 -10 16 0 6 4 7 10 4 6 -3 7 1 4 9 -3 9 -1 16 5 16 6 0 8 7 4 17 -4 11 -3
14 5 9 7 -4 12 -2 12 3 0 6 -4 11 -10 11 -5 0 -2 16 7 35 9 19 20 35 25 35 13
0 9 -18 -4 -23 -8 -4 -9 -6 -2 -6 6 -1 17 6 24 14 9 10 9 15 1 15 -6 0 -11 5
-11 11 0 6 7 9 14 6 10 -4 13 -1 10 7 -8 21 92 146 117 146 5 0 5 -15 1 -32z
m4832 -242 c-3 -12 -15 -35 -27 -52 -15 -23 -24 -29 -32 -21 -9 8 -8 17 2 37
7 14 18 38 23 54 9 24 13 26 25 16 10 -8 13 -21 9 -34z m-269 -17 c6 -19 -16
-48 -37 -49 -9 0 -26 -55 -34 -113 -7 -52 -25 -77 -54 -77 -22 0 -21 8 11 95
11 33 21 71 21 85 0 29 44 80 69 80 10 0 21 -9 24 -21z m-4934 -115 c24 -112
24 -160 -1 -209 -11 -22 -20 -45 -20 -53 0 -7 -4 -10 -10 -7 -10 6 -14 -13
-10 -49 5 -53 -63 61 -75 125 -9 50 11 154 41 213 30 57 45 79 51 72 3 -2 13
-44 24 -92z m4819 60 c0 -8 -4 -14 -10 -14 -14 0 -17 0 -50 -10 -16 -5 -32 -5
-35 -1 -5 9 33 46 55 53 18 6 40 -9 40 -28z m-217 -117 c18 -35 18 -38 -1 -79
-40 -91 -125 -126 -177 -73 -19 18 -25 35 -25 65 0 132 149 196 203 87z
m-4164 -61 c-11 -12 -12 -29 -1 -22 4 2 9 -4 9 -15 2 -25 -9 -24 -26 2 -9 16
-10 24 -2 29 7 4 9 15 4 25 -6 17 -5 18 9 5 10 -9 13 -19 7 -24z m-4112 1 c-2
-6 -9 -13 -17 -15 -7 -3 -10 0 -6 7 9 15 4 14 -30 -4 -16 -8 -36 -15 -44 -14
-11 0 -11 2 -2 6 10 4 10 8 0 21 -11 13 -10 14 9 4 22 -12 57 -6 48 8 -2 4 7
5 21 2 14 -2 23 -9 21 -15z m7231 -49 l-3 -63 -150 -50 -150 -50 -3 -42 -3
-41 113 33 c126 38 130 37 126 -34 -3 -44 -3 -44 -58 -62 -30 -10 -81 -25
-112 -34 l-58 -16 0 -39 c0 -22 1 -40 3 -40 1 0 68 20 148 43 l147 43 5 -55
c3 -31 3 -59 -1 -63 -10 -10 -203 -77 -282 -98 -36 -10 -89 -27 -118 -39 l-52
-21 2 277 3 277 65 17 c36 9 133 39 215 67 83 28 154 51 158 51 4 1 7 -27 5
-61z m708 10 c7 -23 -26 -75 -68 -105 l-30 -21 66 5 c55 5 66 3 66 -9 0 -9
-12 -20 -27 -26 -40 -16 -175 -42 -185 -36 -15 9 20 60 67 99 40 32 46 42 42
65 -7 32 6 48 38 48 15 0 27 -8 31 -20z m-3826 -33 c14 -16 10 -18 -14 -9 -9
3 -16 10 -16 15 0 14 16 11 30 -6z m-20 -65 c0 -14 53 -32 60 -20 4 6 17 0 36
-16 l29 -27 -28 17 c-15 9 -32 14 -37 11 -13 -8 -77 23 -84 41 -3 8 -13 14
-22 14 -13 0 -11 -4 7 -19 12 -10 23 -28 24 -40 2 -20 -9 -29 -18 -13 -2 4 -3
2 -1 -5 5 -20 -8 -23 -37 -6 -35 21 -48 47 -19 38 24 -8 28 19 5 33 -13 7 -14
14 -6 36 l11 27 40 -32 c22 -18 40 -35 40 -39z m64 24 c30 -29 19 -33 -14 -4
-13 11 -18 20 -12 20 6 0 18 -7 26 -16z m-49 -64 c3 -5 -1 -10 -9 -10 -9 0
-16 5 -16 10 0 6 4 10 9 10 6 0 13 -4 16 -10z m4783 -172 c23 -95 62 -265 87
-378 26 -113 71 -299 102 -415 30 -115 64 -248 75 -295 20 -86 84 -328 120
-453 11 -38 18 -70 16 -72 -8 -8 -370 -124 -394 -127 -31 -4 -37 12 -80 207
-15 66 -28 122 -30 124 -5 5 -73 -16 -264 -79 l-135 -45 -35 -194 -35 -193
-80 -23 c-44 -13 -134 -42 -199 -64 -103 -35 -156 -48 -156 -38 0 1 14 65 31
142 16 77 52 244 79 370 67 313 133 609 179 795 22 85 56 234 76 330 21 96 52
231 69 299 l32 124 60 18 c32 9 142 44 244 77 102 33 188 60 191 61 3 1 24
-77 47 -171z m-4728 148 c-4 -4 -16 -4 -26 2 -16 9 -14 10 8 9 15 -1 23 -6 18
-11z m-36 -7 c14 -7 23 -16 20 -21 -3 -5 2 -15 11 -22 16 -11 16 -13 1 -13 -9
0 -16 4 -16 9 0 4 -3 7 -7 7 -19 -3 -33 2 -33 12 0 6 7 9 15 5 8 -3 15 -2 15
3 0 5 -9 11 -20 14 -11 3 -18 1 -15 -3 8 -13 -9 -20 -25 -9 -13 8 -13 10 0 19
19 12 24 12 54 -1z m106 -29 c8 -5 11 -10 5 -10 -5 0 -17 5 -25 10 -8 5 -10
10 -5 10 6 0 17 -5 25 -10z m-115 -38 c-3 -3 -11 0 -18 7 -9 10 -8 11 6 5 10
-3 15 -9 12 -12z m88 4 c4 -10 1 -13 -8 -9 -8 3 -12 9 -9 14 7 12 11 11 17 -5z
m2312 -29 c39 -39 60 -104 50 -156 -4 -20 -24 -62 -46 -93 -21 -32 -39 -64
-39 -72 0 -8 20 -36 44 -63 l44 -49 -31 -17 c-53 -28 -121 -49 -125 -38 -2 5
-19 31 -39 57 -33 43 -38 46 -72 41 -83 -12 -88 -17 -95 -106 l-7 -80 -57 -12
c-31 -6 -64 -15 -72 -19 -13 -7 -15 17 -15 188 0 109 -2 231 -5 272 l-5 75
155 52 c199 66 265 70 315 20z m-3862 16 c-7 -2 -13 -14 -14 -26 0 -12 -3 -16
-6 -9 -7 18 4 42 19 41 10 0 10 -2 1 -6z m-513 -252 c0 -117 9 -111 -150 -111
-119 -1 -169 -10 -240 -44 -28 -13 -48 -20 -44 -15 3 5 -1 9 -8 10 -7 0 -2 5
11 10 13 5 21 12 18 15 -9 10 -99 -35 -177 -89 -94 -64 -133 -100 -135 -124
-3 -28 -21 -68 -36 -80 -14 -10 -248 -86 -299 -96 -14 -3 -35 -9 -47 -12 -31
-10 -29 5 7 74 66 123 197 238 370 323 146 72 308 143 384 168 75 25 275 68
319 69 l27 1 0 -99z m3680 -104 c0 -221 -8 -252 -86 -336 -55 -60 -106 -89
-197 -112 -40 -10 -54 -9 -92 5 -52 20 -91 62 -104 114 -6 20 -11 109 -13 198
l-3 160 55 18 c30 9 60 19 66 22 9 4 13 -40 15 -158 5 -194 13 -218 78 -218
32 0 48 8 88 44 l48 44 5 178 5 179 55 22 c30 12 61 23 68 23 9 0 12 -43 12
-183z m-672 -93 l-3 -66 -70 -22 -70 -22 4 -131 c2 -71 0 -166 -4 -211 l-7
-80 -57 -16 c-32 -9 -60 -16 -64 -16 -4 0 -7 92 -7 205 0 113 -3 205 -7 205
-5 0 -40 -8 -79 -18 l-72 -18 -6 35 c-14 86 -16 83 97 115 56 15 154 45 217
66 63 21 119 38 123 39 4 1 7 -29 5 -65z m2406 20 c62 -21 120 -79 155 -153
l26 -56 3 -555 c2 -386 0 -573 -8 -615 -17 -89 -81 -204 -162 -290 -149 -159
-253 -218 -558 -315 -91 -28 -223 -73 -295 -99 -193 -71 -171 -79 -179 62 -8
153 -8 482 1 1219 l6 585 161 51 c89 28 213 67 276 86 63 20 167 51 230 71
104 32 123 35 205 31 50 -2 112 -12 139 -22z m-5286 -71 c37 -20 69 -38 70
-39 2 -1 -11 -16 -30 -33 -61 -56 -120 -80 -229 -97 -97 -14 -104 -14 -116 2
-19 25 -18 28 31 75 34 33 185 128 204 129 2 0 34 -17 70 -37z m2265 -170 c13
-197 9 -283 -17 -338 -46 -100 -184 -195 -285 -199 -37 -1 -57 5 -89 26 -65
43 -69 59 -73 266 l-4 183 59 24 c33 13 62 23 64 20 2 -2 6 -77 8 -166 4 -185
12 -209 67 -209 43 0 100 40 121 85 15 31 17 61 14 194 l-3 157 60 27 c33 14
63 26 66 27 3 0 9 -44 12 -97z m-629 -159 c3 -30 4 -59 1 -64 -3 -4 -29 -13
-57 -20 -29 -7 -88 -26 -130 -42 l-78 -29 0 -50 c0 -27 4 -49 9 -49 5 0 53 16
106 35 54 20 99 34 100 33 1 -2 5 -24 9 -49 5 -36 3 -50 -9 -63 -9 -9 -20 -16
-25 -16 -5 0 -47 -14 -94 -31 l-85 -31 -3 -96 -3 -96 -50 -11 c-27 -7 -57 -15
-66 -19 -14 -6 -17 9 -22 121 -4 70 -7 190 -7 265 l0 136 98 32 c53 17 140 46
192 65 52 19 98 34 101 34 3 1 9 -24 13 -55z m2066 -214 c98 -409 173 -711
197 -790 14 -47 36 -128 48 -180 63 -261 90 -365 121 -469 19 -62 34 -121 34
-130 0 -14 -41 -31 -187 -79 -104 -34 -196 -62 -205 -62 -20 0 -42 66 -78 230
-13 58 -26 109 -30 113 -8 9 -185 -43 -310 -89 -36 -13 -70 -24 -76 -24 -6 0
-14 -17 -17 -37 -5 -38 -54 -310 -62 -349 -4 -16 -17 -24 -62 -33 -32 -7 -98
-28 -148 -46 -78 -29 -194 -65 -208 -65 -2 0 2 28 9 63 13 65 101 520 110 572
6 32 43 190 173 730 44 182 94 400 112 485 17 85 35 164 39 175 6 15 31 27 96
45 49 14 157 48 239 76 83 27 153 48 156 45 4 -3 25 -85 49 -181z m-4087 85
c-3 -9 -8 -14 -10 -11 -3 3 -2 9 2 15 9 16 15 13 8 -4z m73 -7 c4 -7 3 -8 -4
-4 -7 4 -12 2 -12 -5 0 -7 -3 -10 -6 -6 -6 5 3 27 11 27 2 0 7 -5 11 -12z
m1114 -92 c0 -6 -168 -323 -186 -351 -15 -23 -20 -54 -24 -143 l-5 -115 -50
-14 c-27 -8 -56 -20 -62 -25 -10 -8 -13 14 -13 105 0 114 0 116 -29 144 -15
15 -54 62 -86 103 -32 41 -69 84 -82 95 l-25 20 76 36 76 36 61 -91 c34 -50
64 -90 67 -89 3 0 33 57 66 125 l61 123 65 22 c62 21 90 27 90 19z m-1860 -61
c0 -11 -168 -114 -227 -139 -96 -40 -97 -31 -3 21 240 131 230 126 230 118z
m3620 -1040 c0 -1001 1 -976 -44 -926 -15 16 -16 49 -14 329 2 171 0 313 -3
316 -7 8 -189 -51 -213 -69 -18 -13 -19 -31 -20 -245 -1 -225 -1 -230 -22
-230 -52 0 -53 7 -55 265 -2 246 -13 513 -28 690 l-9 100 0 -155 c0 -85 0
-221 -1 -301 l-1 -147 -47 -20 c-27 -11 -68 -25 -93 -32 -57 -15 -144 -44
-192 -64 -27 -12 -38 -22 -38 -38 0 -24 63 -214 91 -272 17 -36 18 -42 4 -63
-16 -23 -45 -32 -45 -12 0 5 -20 56 -44 112 -24 56 -62 161 -84 232 -22 72
-45 144 -52 160 -6 17 -26 82 -45 145 l-33 115 0 -552 c0 -303 -4 -558 -9
-567 -17 -32 -110 -79 -227 -117 -67 -21 -126 -39 -133 -39 -19 0 -19 1909 0
1914 6 3 101 32 209 66 109 34 202 60 209 58 6 -2 35 -64 64 -138 203 -513
264 -669 269 -694 16 -69 28 3 38 225 9 233 13 259 62 459 14 58 36 152 48
210 l23 105 55 18 c56 19 359 105 373 106 4 1 7 -424 7 -944z m-2452 479 l-3
-135 -57 -23 -58 -24 0 147 -1 146 -20 -25 c-12 -14 -46 -67 -76 -118 -30 -51
-61 -96 -69 -99 -8 -3 -41 24 -83 68 l-70 74 -1 -146 0 -145 -62 -26 -63 -26
-7 277 c-4 152 -4 279 0 282 4 4 37 9 73 13 l66 6 42 -50 c23 -27 53 -68 65
-91 l23 -40 20 24 c10 14 45 78 77 144 l58 119 71 25 72 26 3 -133 c1 -74 1
-195 0 -270z m486 -191 c16 -56 67 -250 85 -323 27 -112 89 -348 155 -595 30
-110 73 -279 96 -375 24 -96 58 -229 77 -294 18 -66 33 -125 33 -130 0 -6 -51
-26 -113 -45 -61 -19 -152 -47 -200 -63 -49 -15 -93 -26 -98 -22 -5 3 -9 17
-9 31 0 46 -64 295 -77 300 -14 5 -220 -52 -328 -91 -77 -27 -72 -19 -100
-151 -8 -38 -25 -115 -38 -170 l-22 -100 -213 -71 c-120 -40 -212 -67 -212
-60 0 6 12 49 25 96 14 47 38 153 55 235 37 193 91 434 136 605 19 74 48 196
64 270 15 74 49 221 74 325 26 105 63 261 84 349 l38 158 95 31 c121 39 349
104 371 106 9 0 19 -7 22 -16z m-1255 -464 c59 -26 104 -70 144 -139 30 -53
31 -59 38 -215 3 -88 6 -161 5 -162 -2 -3 -403 -143 -409 -143 -2 0 -3 57 -3
127 l1 127 -33 19 c-30 18 -40 19 -84 9 -74 -18 -195 -77 -229 -113 l-29 -31
0 -523 c0 -583 -3 -555 68 -555 63 0 217 67 260 112 33 36 42 80 42 208 l0
116 173 57 c94 32 189 61 210 64 l37 6 0 -184 c0 -170 -2 -188 -24 -241 -75
-183 -311 -404 -513 -482 -181 -70 -312 -94 -413 -76 -81 15 -125 37 -176 92
-106 113 -104 96 -97 791 l5 582 38 82 c79 169 228 316 380 374 91 35 333 111
380 119 66 13 176 3 229 -21z m6663 -26 c-8 -3 -10 -9 -3 -17 5 -6 16 -31 24
-54 13 -38 13 -44 0 -49 -23 -9 4 -21 43 -19 18 1 30 -2 26 -5 -4 -4 -124 -45
-267 -92 -143 -48 -366 -122 -495 -166 -473 -160 -1888 -623 -1915 -626 -5 -1
-22 -6 -37 -13 -17 -7 -37 -8 -50 -3 -20 7 -20 8 -2 15 11 4 20 3 22 -3 2 -6
8 -8 13 -5 6 3 4 11 -5 17 -23 18 -8 123 17 121 10 -1 16 1 13 4 -3 3 -1 11 5
19 9 10 3 10 -25 -2 -21 -9 -36 -11 -36 -5 0 5 9 10 19 10 11 0 22 4 25 9 3 4
31 16 63 26 32 10 312 104 623 211 311 106 682 229 825 274 143 45 332 106
420 135 88 29 234 76 325 105 91 28 210 67 265 85 55 19 105 34 110 34 6 0 4
-3 -3 -6z m-250 -416 c-23 -13 -23 -13 -3 -31 11 -10 24 -15 29 -12 5 3 17 -3
27 -14 10 -11 23 -20 29 -20 6 0 11 -13 11 -29 1 -29 -3 -31 -100 -65 -55 -19
-127 -43 -160 -54 -33 -10 -276 -91 -540 -180 -264 -88 -541 -179 -615 -202
-74 -22 -171 -54 -215 -69 -172 -62 -406 -133 -413 -126 -8 7 -9 13 -11 49 -1
15 -9 26 -23 29 -22 6 -21 7 7 32 17 14 34 25 38 25 5 0 16 7 24 16 14 14 12
15 -23 9 -21 -4 -43 -11 -48 -16 -6 -5 -19 -9 -30 -8 -14 0 -16 2 -6 6 8 2 24
8 35 13 30 11 241 85 310 107 33 11 148 49 255 86 107 36 350 116 540 177 190
61 448 145 574 187 202 67 231 74 250 63 19 -12 20 -12 8 3 -12 14 -9 17 20
26 47 13 57 12 30 -2z m133 -117 c-3 -5 -12 -10 -18 -10 -7 0 -6 4 3 10 19 12
23 12 15 0z m-3900 -65 c-33 -7 -62 -11 -64 -9 -8 8 51 22 94 22 17 0 4 -5
-30 -13z m3530 -210 c-16 -8 -35 -14 -41 -15 -7 0 -14 -7 -18 -15 -4 -12 4
-15 44 -15 37 0 50 -4 50 -15 0 -8 -6 -12 -14 -9 -29 11 -25 -15 4 -29 16 -9
30 -12 30 -7 0 4 10 6 22 2 14 -3 17 -7 9 -10 -11 -4 -11 -6 0 -13 18 -11 2
-26 -31 -32 -14 -2 -32 -7 -40 -10 -52 -20 -309 -106 -440 -147 -85 -27 -171
-56 -190 -64 -19 -8 -109 -38 -200 -66 -192 -60 -224 -70 -425 -137 -82 -28
-170 -56 -195 -63 -25 -6 -55 -16 -68 -21 -30 -12 -45 -11 -37 1 10 16 -12 12
-29 -6 -13 -12 -16 -13 -16 -2 0 8 16 20 35 28 26 10 32 17 24 26 -7 9 -5 15
7 22 22 12 8 35 -16 27 -10 -3 -21 -1 -25 4 -3 7 0 8 9 5 9 -3 16 -2 16 3 0 5
14 8 30 7 31 -2 40 9 18 22 -8 5 2 14 27 25 l40 18 -33 -1 c-18 -1 -37 -8 -43
-17 -7 -12 -12 -13 -15 -4 -4 10 -12 9 -34 -2 -16 -8 -35 -15 -42 -14 -22 1
65 36 145 58 42 11 84 18 94 15 13 -4 14 -3 5 4 -16 11 65 40 463 166 44 14
260 86 480 161 361 121 485 159 400 120z m155 -105 c0 -3 -9 -11 -19 -17 -15
-10 -20 -9 -24 1 -3 8 -4 16 -2 18 6 6 45 4 45 -2z m-3613 -83 c28 -34 56 -72
64 -84 8 -13 16 -23 19 -23 3 0 41 29 85 65 96 78 110 81 101 23 -3 -24 -13
-101 -21 -173 -8 -71 -18 -147 -21 -167 -9 -56 9 -46 46 25 41 78 101 167 112
167 5 0 11 -8 14 -17 12 -37 37 -93 42 -93 3 0 13 6 21 14 68 59 211 126 211
98 0 -4 -11 -52 -25 -106 -36 -142 -36 -146 23 -146 55 0 78 -11 66 -31 -33
-55 -263 -333 -298 -360 -32 -25 -32 -36 -1 -90 33 -59 33 -85 -2 -94 -16 -4
-89 -6 -163 -5 -74 1 -145 2 -156 1 -21 -1 -21 -2 8 -88 18 -53 30 -112 31
-148 l2 -60 -46 -9 c-26 -5 -58 -6 -72 -2 -34 8 -41 43 -34 170 3 55 2 96 -3
96 -5 0 -64 -27 -131 -61 -105 -53 -189 -89 -207 -89 -2 0 -1 24 3 53 18 125
31 108 -155 203 -91 46 -166 88 -168 93 -2 5 12 18 31 30 74 45 74 45 12 167
l-55 109 40 3 c22 2 72 -1 112 -7 55 -8 74 -7 81 2 4 7 6 42 2 80 -4 54 -2 67
9 67 8 0 49 -28 91 -62 116 -94 125 -101 125 -88 0 7 -24 67 -54 134 -55 123
-91 226 -78 226 4 0 45 -7 91 -15 46 -8 86 -13 89 -10 3 3 18 55 33 117 46
184 47 184 126 85z m929 15 c-3 -5 2 -22 9 -38 l15 -29 -25 30 c-29 35 -31 45
-9 45 8 0 13 -4 10 -8z m344 -22 c0 -11 -4 -20 -9 -20 -5 0 -7 9 -4 20 3 11 7
20 9 20 2 0 4 -9 4 -20z m680 -330 c8 -5 12 -12 9 -15 -8 -8 -39 5 -39 16 0
11 11 11 30 -1z"/>
<path d="M6440 9155 c0 -8 2 -15 4 -15 2 0 6 7 10 15 3 8 1 15 -4 15 -6 0 -10
-7 -10 -15z"/>
<path d="M4186 5873 c-6 -14 -5 -15 5 -6 7 7 10 15 7 18 -3 3 -9 -2 -12 -12z"/>
<path d="M4186 5809 c3 -6 1 -15 -5 -19 -9 -5 -8 -10 4 -20 13 -11 15 -10 9 4
-3 9 -1 16 5 16 6 0 11 -5 11 -11 0 -5 5 -7 10 -4 7 4 2 14 -11 26 -25 21 -34
24 -23 8z"/>
<path d="M4235 5800 c3 -5 8 -10 11 -10 2 0 4 5 4 10 0 6 -5 10 -11 10 -5 0
-7 -4 -4 -10z"/>
<path d="M4163 5727 c4 -10 7 -21 7 -23 0 -3 5 -2 10 1 6 3 11 0 11 -7 1 -7 2
-17 4 -23 1 -5 3 -14 3 -18 1 -5 9 -2 17 7 9 8 23 12 32 9 12 -5 12 -2 -3 15
-22 26 -25 27 -17 6 4 -12 2 -15 -8 -12 -8 3 -13 12 -13 21 1 9 -2 15 -6 12
-5 -3 -16 3 -26 12 -17 17 -18 17 -11 0z"/>
<path d="M4241 5735 c-1 -5 8 -23 19 -40 14 -21 20 -25 20 -12 0 9 -4 17 -8
17 -5 0 -14 10 -20 23 -6 12 -11 18 -11 12z"/>
<path d="M4291 5657 c-13 -21 -12 -21 5 -5 10 10 16 20 13 22 -3 3 -11 -5 -18
-17z"/>
<path d="M4247 5640 c-9 -11 -13 -20 -7 -20 5 0 14 9 20 20 6 11 9 20 8 20 -2
0 -11 -9 -21 -20z"/>
<path d="M4190 5636 c0 -2 7 -9 15 -16 9 -7 15 -8 15 -2 0 5 -7 12 -15 16 -8
3 -15 4 -15 2z"/>
<path d="M4253 5610 c-12 -10 -23 -17 -26 -14 -2 3 -7 -2 -11 -11 -5 -13 -2
-14 17 -4 27 15 51 38 45 44 -2 3 -14 -4 -25 -15z"/>
<path d="M4140 5605 c0 -7 -8 -19 -17 -24 -10 -6 -13 -11 -6 -11 6 0 15 5 18
10 4 6 10 8 15 5 4 -3 6 4 3 15 -6 23 -13 26 -13 5z"/>
<path d="M4194 5585 c-4 -8 -10 -12 -15 -9 -5 3 -4 -7 3 -22 11 -23 10 -28
-11 -45 -13 -11 -19 -19 -13 -19 13 0 38 25 45 42 2 7 8 10 12 6 4 -4 0 -17
-9 -30 -9 -12 -16 -27 -16 -33 0 -5 9 4 20 20 11 17 20 24 20 18 0 -7 4 -13
10 -13 5 0 2 13 -8 29 -9 16 -22 27 -29 24 -16 -6 -16 2 -3 28 6 10 8 19 5 19
-3 0 -8 -7 -11 -15z"/>
<path d="M4130 5551 c-5 -11 -7 -22 -2 -25 4 -2 12 7 19 20 13 28 -2 33 -17 5z"/>
<path d="M4212 5465 c-11 -12 -10 -15 3 -15 8 0 15 7 15 15 0 18 -2 18 -18 0z"/>
<path d="M8378 5593 c-8 -16 -13 -37 -12 -48 3 -49 5 -56 13 -50 5 3 12 1 16
-5 18 -29 95 24 95 65 0 63 -86 93 -112 38z"/>
<path d="M4275 5449 c-4 -6 -5 -12 -2 -15 2 -3 7 2 10 11 7 17 1 20 -8 4z"/>
<path d="M8826 4788 c-4 -40 -22 -163 -41 -273 -49 -280 -70 -423 -64 -430 6
-5 214 59 236 73 9 6 1 67 -33 247 -24 132 -52 288 -62 348 -9 59 -20 107 -23
107 -3 0 -9 -33 -13 -72z"/>
<path d="M9203 4260 c-35 -16 -63 -34 -63 -40 0 -13 17 -13 22 -1 2 6 19 13
38 16 31 5 100 40 100 51 0 11 -41 0 -97 -26z"/>
<path d="M9053 4215 c-23 -10 -31 -19 -27 -29 8 -20 13 -20 58 -1 37 16 50 45
19 45 -10 -1 -33 -7 -50 -15z"/>
<path d="M9265 4186 c-22 -7 -55 -20 -73 -30 -17 -9 -179 -66 -360 -125 -180
-60 -355 -122 -390 -137 -72 -32 -71 -30 -118 -248 -15 -67 -41 -184 -59 -261
-19 -77 -32 -141 -31 -142 1 -2 22 4 47 11 24 8 81 25 126 36 45 12 89 27 97
33 11 8 27 71 49 196 22 124 38 187 48 192 80 41 480 161 493 149 4 -5 16 -46
70 -245 15 -57 26 -79 36 -78 8 1 70 19 138 40 l123 38 -6 43 c-3 23 -21 95
-40 160 -18 64 -43 160 -55 212 -36 153 -40 170 -48 169 -4 0 -25 -6 -47 -13z"/>
<path d="M8651 4101 c-7 -5 -12 -14 -10 -20 3 -6 9 -7 18 -2 7 5 12 14 10 20
-3 6 -9 7 -18 2z"/>
<path d="M8615 4080 c-3 -5 -1 -10 4 -10 6 0 11 5 11 10 0 6 -2 10 -4 10 -3 0
-8 -4 -11 -10z"/>
<path d="M8587 4059 c7 -7 15 -10 18 -7 3 3 -2 9 -12 12 -14 6 -15 5 -6 -5z"/>
<path d="M8478 4017 c-37 -12 -94 -54 -85 -63 2 -3 30 7 60 21 31 14 60 25 65
25 5 0 9 7 9 15 0 17 0 17 -49 2z"/>
<path d="M6510 5112 l-55 -18 -3 -68 -3 -68 37 7 c55 10 139 43 168 66 28 22
35 66 14 87 -17 17 -93 14 -158 -6z"/>
<path d="M2010 4890 c-9 -6 -10 -10 -3 -10 6 0 15 5 18 10 8 12 4 12 -15 0z"/>
<path d="M7360 4409 c-52 -16 -105 -29 -117 -29 l-23 0 0 -575 c0 -316 1 -575
3 -575 27 0 234 79 269 103 80 53 76 32 82 571 l4 479 -28 29 c-36 36 -65 35
-190 -3z"/>
<path d="M7773 3783 c-19 -10 -33 -24 -33 -35 0 -14 4 -16 18 -9 9 6 29 12 43
15 30 7 48 46 21 45 -10 0 -32 -8 -49 -16z"/>
<path d="M7687 3744 c-8 -8 1 -24 14 -24 5 0 9 7 9 15 0 15 -12 20 -23 9z"/>
<path d="M7900 3723 c-45 -7 -152 -44 -200 -68 l-47 -24 -6 -98 c-14 -198 -33
-221 -258 -311 -85 -34 -172 -63 -194 -65 l-40 -2 -3 163 c-1 89 -4 162 -6
162 -10 0 -196 -60 -227 -74 -22 -9 -39 -24 -43 -38 -3 -13 -6 -151 -6 -307 0
-266 1 -283 18 -276 83 34 181 68 387 136 288 95 359 132 486 258 113 111 155
194 169 327 12 108 13 225 3 223 -5 -1 -19 -4 -33 -6z"/>
<path d="M7075 3558 c-31 -11 -85 -32 -167 -67 -28 -12 -48 -26 -48 -35 0 -9
5 -16 10 -16 6 0 10 5 10 10 0 5 3 9 8 8 12 -3 122 32 122 40 0 4 27 16 60 26
33 11 60 23 60 28 0 5 4 7 9 3 5 -3 12 -1 16 5 8 13 -40 11 -80 -2z"/>
<path d="M5938 3904 c-5 -4 -8 -17 -8 -30 0 -12 -13 -91 -29 -176 -16 -84 -41
-229 -55 -323 -15 -93 -28 -182 -31 -197 -6 -35 -4 -35 125 5 94 30 105 36
108 58 2 14 -8 86 -22 161 -14 74 -35 205 -46 289 -26 187 -33 223 -42 213z"/>
<path d="M6250 3312 c-122 -43 -130 -47 -130 -70 0 -10 3 -13 8 -7 4 6 18 11
32 13 14 1 27 7 28 12 2 6 12 10 23 10 10 0 19 4 19 10 0 5 14 7 30 5 21 -2
30 1 30 11 0 8 5 14 11 14 5 0 8 -4 4 -9 -3 -6 7 -6 27 0 18 5 35 9 37 9 2 0
1 6 -2 14 -4 9 1 17 11 19 13 4 13 5 -3 5 -11 0 -67 -16 -125 -36z"/>
<path d="M6220 3193 c-317 -98 -497 -156 -530 -173 -19 -9 -75 -28 -123 -40
-63 -17 -93 -30 -102 -44 -7 -12 -36 -138 -63 -281 -65 -330 -71 -365 -63
-365 12 0 256 91 263 99 5 4 24 85 43 181 19 96 39 184 44 196 10 22 202 102
301 124 30 7 81 21 112 32 32 11 65 18 74 16 13 -2 24 -33 44 -123 43 -185 60
-238 73 -226 7 5 62 24 123 41 62 18 117 35 123 39 10 6 -41 231 -120 534 -12
47 -15 47 -199 -10z"/>
<path d="M5733 3163 c-7 -2 -13 -9 -13 -14 0 -6 4 -8 9 -5 5 4 12 0 14 -6 3
-7 6 -3 6 10 1 12 0 22 -1 21 -2 0 -9 -3 -15 -6z"/>
<path d="M5694 3132 c-9 -5 -8 -11 2 -20 12 -11 14 -9 14 8 0 22 0 23 -16 12z"/>
<path d="M5630 3112 c-54 -17 -130 -57 -130 -68 0 -17 -4 -17 58 1 29 9 50 20
47 25 -4 6 0 10 8 10 14 0 43 27 36 34 -2 2 -11 1 -19 -2z"/>
<path d="M4955 2901 c-81 -28 -155 -76 -155 -101 0 -6 19 2 43 18 23 16 69 37
102 47 62 19 85 31 85 46 0 12 -16 10 -75 -10z"/>
<path d="M3985 2590 c6 -10 4 -12 -8 -7 -9 3 -18 3 -21 -1 -3 -4 4 -8 14 -9
23 -2 35 13 19 23 -8 5 -9 3 -4 -6z"/>
<path d="M3858 2543 c-14 -4 -35 -33 -23 -33 12 0 55 24 55 32 0 8 -4 9 -32 1z"/>
<path d="M3955 2491 c-44 -15 -99 -37 -122 -49 l-43 -22 0 -213 c0 -116 3
-256 7 -310 5 -84 9 -98 22 -94 9 3 59 17 111 32 52 16 98 31 103 35 4 3 6
151 5 327 l-3 321 -80 -27z"/>
<path d="M3785 2490 c-3 -5 -1 -10 4 -10 6 0 11 5 11 10 0 6 -2 10 -4 10 -3 0
-8 -4 -11 -10z"/>
<path d="M2870 2891 c0 -21 -9 -90 -20 -152 -38 -214 -92 -561 -87 -565 3 -3
224 63 234 70 3 3 -26 190 -67 434 -41 236 -60 304 -60 213z"/>
<path d="M3305 2274 c-28 -12 -182 -66 -415 -144 -52 -18 -131 -45 -175 -61
-44 -15 -131 -46 -194 -68 -62 -21 -118 -44 -123 -49 -5 -5 -23 -72 -39 -148
-51 -238 -99 -477 -96 -480 1 -2 23 3 47 11 25 8 85 28 134 43 l89 28 43 189
c24 105 47 198 52 209 6 14 36 27 108 46 54 15 160 46 234 69 74 22 143 41
152 41 12 0 20 -17 31 -67 9 -38 26 -114 38 -171 21 -95 24 -103 43 -98 95 23
251 75 254 84 2 6 -15 78 -37 159 -22 81 -54 208 -71 280 -18 73 -35 135 -38
137 -4 2 -20 -2 -37 -10z"/>
<path d="M3071 2264 c0 -11 3 -14 6 -6 3 7 2 16 -1 19 -3 4 -6 -2 -5 -13z"/>
<path d="M2650 2173 c-34 -16 -35 -16 -10 -22 24 -7 60 13 60 31 0 11 -9 9
-50 -9z"/>
<path d="M2536 2125 c-26 -14 -53 -25 -60 -25 -14 0 -62 -47 -55 -55 9 -8 79
22 94 41 15 19 15 19 8 0 -5 -15 -3 -17 8 -10 8 4 19 9 24 10 6 0 15 2 21 2 9
2 19 62 10 62 -2 0 -24 -11 -50 -25z"/>
<path d="M2600 2140 c0 -5 5 -10 11 -10 5 0 7 5 4 10 -3 6 -8 10 -11 10 -2 0
-4 -4 -4 -10z"/>
<path d="M1975 1809 c-11 -4 -60 -19 -110 -34 -49 -15 -105 -36 -122 -47 l-33
-20 0 -86 c0 -174 -43 -237 -209 -307 -135 -57 -234 -62 -276 -15 -16 18 -18
37 -16 150 1 72 -2 130 -6 130 -4 0 -72 -21 -151 -47 l-143 -48 3 -150 c3
-134 6 -155 28 -199 13 -27 39 -64 57 -82 95 -95 195 -103 419 -32 221 69 340
148 465 305 32 40 71 101 88 135 31 63 32 64 29 209 -3 141 -4 146 -23 138z"/>
<path d="M1160 1684 c-19 -9 -55 -22 -80 -29 -143 -43 -204 -79 -170 -100 20
-13 80 5 81 23 0 9 3 12 5 5 4 -8 15 -8 42 -1 73 20 162 60 162 73 0 7 3 20 6
29 8 20 -1 20 -46 0z"/>
<path d="M8351 2384 c0 -11 3 -14 6 -6 3 7 2 16 -1 19 -3 4 -6 -2 -5 -13z"/>
<path d="M4522 1747 c-13 -47 -30 -94 -38 -106 -18 -25 -59 -27 -111 -6 -19 8
-37 15 -39 15 -2 0 9 -24 25 -52 38 -68 83 -225 79 -275 -3 -34 -6 -38 -34
-41 -25 -2 -47 9 -110 57 l-79 60 -6 -50 c-4 -28 -9 -52 -11 -54 -2 -2 -44 0
-93 5 -49 5 -90 8 -91 7 -2 -1 17 -34 42 -72 24 -39 44 -79 44 -90 0 -12 -15
-30 -38 -44 -25 -17 -32 -26 -22 -29 15 -4 219 -99 270 -125 22 -12 25 -19 25
-70 0 -31 1 -57 2 -57 2 0 38 17 81 39 42 21 118 56 167 77 l90 39 143 0 c139
0 143 1 136 20 -3 11 -9 38 -11 60 -5 46 -3 49 169 243 59 66 104 123 101 126
-4 3 -16 6 -28 6 -45 0 -55 41 -34 140 6 28 9 53 7 55 -2 2 -35 -16 -73 -41
-77 -50 -104 -52 -123 -11 -14 28 -32 36 -32 15 0 -23 -98 -167 -126 -184 -25
-17 -27 -17 -40 1 -22 30 -14 278 12 368 8 27 -8 20 -65 -30 l-54 -47 -26 30
c-14 16 -40 46 -56 67 l-30 38 -23 -84z"/>
<path d="M4651 728 c0 -27 4 -48 9 -48 11 0 11 21 0 65 -7 27 -8 25 -9 -17z"/>
<path d="M5824 8982 c3 -5 0 -13 -6 -15 -9 -4 -10 -6 -1 -6 17 -1 25 16 12 25
-7 4 -9 3 -5 -4z"/>
<path d="M3570 7390 c0 -5 7 -10 15 -10 8 0 15 5 15 10 0 6 -7 10 -15 10 -8 0
-15 -4 -15 -10z"/>
<path d="M5450 6923 c23 -20 39 -42 36 -49 -3 -7 0 -16 6 -20 7 -4 8 -3 4 4
-4 7 -5 12 -2 12 3 0 12 -12 19 -27 l14 -27 13 23 c10 20 8 27 -17 53 -24 26
-91 68 -108 68 -3 0 13 -16 35 -37z"/>
<path d="M8540 6819 c-150 -28 -325 -90 -436 -154 -81 -47 -384 -165 -485
-190 -174 -41 -513 -87 -744 -100 -60 -3 -132 -8 -160 -10 -27 -2 -97 -7 -155
-10 -292 -15 -443 -26 -453 -32 -6 -4 -8 -38 -4 -94 6 -72 4 -87 -7 -83 -16 6
-27 -48 -15 -68 9 -15 -9 -40 -23 -32 -6 4 -8 -3 -4 -17 l7 -24 -14 24 c-13
22 -15 22 -24 7 -8 -15 -11 -15 -21 -3 -13 15 -6 47 9 47 5 0 9 4 9 10 0 5 -6
7 -14 4 -9 -3 -17 3 -21 15 -3 12 -11 21 -16 21 -13 0 -11 -18 4 -23 9 -4 8
-8 -3 -16 -8 -5 -11 -13 -7 -18 5 -4 12 -1 17 7 6 9 10 10 10 3 0 -6 -4 -14
-10 -18 -5 -3 -7 -12 -4 -19 3 -7 -2 -16 -10 -19 -16 -6 -46 27 -46 50 0 6 -3
14 -7 16 -5 3 -8 -10 -8 -28 0 -18 2 -31 4 -29 2 2 13 -10 23 -27 11 -17 16
-34 12 -38 -4 -3 -9 0 -11 7 -3 6 -9 12 -15 12 -7 0 -7 -5 -1 -12 12 -17 34
-68 29 -68 -3 0 -21 26 -40 57 -20 32 -36 54 -36 50 0 -11 45 -102 52 -105 9
-4 -2 -32 -13 -32 -4 0 -6 6 -3 14 3 8 -4 20 -15 28 -12 8 -18 18 -13 23 4 5
1 5 -6 1 -7 -4 -10 -12 -7 -17 4 -5 1 -9 -4 -9 -16 0 -13 -16 5 -34 8 -9 12
-16 7 -16 -17 0 -41 37 -32 51 16 26 9 31 -10 8 -11 -13 -23 -20 -27 -16 -5 4
-2 12 5 16 11 7 11 13 -2 31 -9 13 -17 17 -22 11 -3 -6 -1 -11 4 -11 18 0 12
-24 -8 -37 -17 -11 -21 -9 -26 7 -3 11 -4 24 -1 28 9 15 -19 9 -34 -7 -13 -13
-12 -14 4 -8 12 5 17 3 14 -5 -3 -7 3 -21 12 -31 16 -16 18 -16 24 -2 3 9 10
14 15 11 5 -3 -2 -19 -17 -36 l-26 -29 -18 21 c-11 12 -16 29 -12 40 3 10 1
18 -4 18 -5 0 -10 -17 -10 -37 -1 -81 -2 -96 -9 -89 -5 4 -8 26 -8 49 0 31 -4
42 -15 42 -8 0 -15 -8 -16 -18 -1 -12 -1 -13 3 -2 7 24 21 18 21 -10 0 -14 -4
-25 -8 -25 -4 0 -7 -18 -7 -40 0 -22 3 -40 6 -40 3 0 12 -9 18 -20 11 -17 10
-18 -4 -13 -13 5 -15 2 -10 -12 6 -15 5 -16 -8 -5 -13 10 -13 15 -3 21 7 4 9
11 5 15 -4 4 -13 2 -19 -4 -10 -10 -9 -17 1 -35 13 -20 13 -21 -2 -8 -18 15
-23 51 -7 51 6 0 10 5 10 11 0 6 -13 8 -31 5 -24 -3 -29 -1 -25 10 3 8 1 14
-3 14 -5 0 -12 -7 -15 -16 -7 -19 19 -48 36 -38 10 6 11 4 0 -7 -10 -11 -19
-6 -52 26 -24 24 -38 45 -35 55 3 9 -4 21 -18 29 -20 13 -21 13 -8 -3 8 -10
15 -26 16 -37 1 -11 11 -29 23 -42 13 -14 18 -27 13 -36 -6 -9 -11 -10 -15 -2
-4 6 -5 15 -2 20 3 5 0 11 -8 14 -10 4 -13 -5 -11 -39 2 -25 -1 -42 -6 -39 -5
4 -9 12 -9 19 0 7 -7 21 -16 32 -10 12 -14 14 -11 4 2 -8 -2 -21 -10 -28 -7
-8 -10 -18 -7 -23 3 -6 12 -2 21 8 14 17 14 17 9 0 -3 -10 -2 -16 3 -13 5 3
12 -1 15 -9 4 -13 2 -14 -14 -5 -11 6 -20 7 -20 2 0 -5 10 -14 23 -20 20 -10
20 -11 2 -9 -11 1 -28 11 -37 22 -10 11 -17 15 -18 10 0 -6 5 -16 12 -23 6 -6
9 -14 6 -18 -4 -3 -14 8 -22 25 -17 31 -22 56 -7 33 6 -10 12 -5 21 18 10 25
10 33 0 43 -10 10 -11 7 -5 -12 5 -16 4 -21 -4 -17 -6 4 -14 1 -17 -8 -7 -18
-44 -17 -44 2 0 8 6 12 15 8 8 -3 15 -1 15 4 0 6 -7 10 -15 10 -8 0 -15 5 -15
11 0 5 4 8 9 5 15 -10 0 33 -17 46 -13 11 -14 11 -7 -2 12 -20 13 -113 0 -126
-7 -9 -15 -4 -27 15 -10 14 -18 21 -18 14 0 -20 65 -90 79 -85 10 3 12 0 8
-11 -6 -17 35 -53 93 -80 76 -36 212 -47 312 -26 89 19 482 235 503 276 8 16
14 18 27 10 12 -8 37 -1 105 30 185 86 424 145 823 203 305 44 403 53 760 75
266 16 321 22 330 33 3 4 46 8 95 10 99 3 349 50 405 76 19 9 25 13 13 10 -18
-4 -23 -1 -23 13 0 10 3 14 8 8 16 -23 147 -1 427 71 230 59 330 91 405 130
60 31 80 48 80 66 0 9 -8 25 -17 37 -17 20 -22 21 -88 12 -101 -15 -157 -13
-201 6 -29 12 -67 16 -144 16 l-105 0 85 6 c95 7 91 13 -25 35 -129 25 -153
34 -176 67 -23 33 -161 107 -248 133 -59 17 -231 20 -311 5z m197 -134 c24
-21 26 -26 13 -35 -24 -16 -37 -12 -44 15 -7 27 -42 35 -64 13 -33 -33 7 -108
58 -108 31 0 80 34 80 56 0 8 5 12 10 9 17 -10 11 -25 -19 -56 -39 -38 -87
-39 -130 -3 -51 43 -38 112 24 127 37 9 44 7 72 -18z m-322 -76 c22 -12 63
-42 90 -68 78 -73 111 -95 250 -166 177 -90 229 -120 190 -109 -47 12 -99 12
-107 0 -5 -7 -8 -6 -8 4 0 13 -1 13 -10 0 -8 -12 -13 -13 -30 -2 -12 7 -20 8
-20 2 0 -5 4 -10 10 -10 5 0 14 -9 20 -20 7 -14 7 -20 0 -20 -5 0 -10 8 -11
18 0 11 -2 12 -6 4 -4 -10 -8 -9 -19 5 -7 10 -14 13 -14 6 0 -6 7 -19 16 -27
8 -9 11 -16 5 -16 -5 0 -17 7 -25 16 -9 8 -16 20 -16 25 0 6 -7 17 -15 25 -8
9 -15 11 -15 5 0 -5 4 -12 9 -15 5 -3 11 -16 14 -28 6 -22 5 -22 -8 -4 -11 15
-15 16 -15 5 0 -8 3 -19 8 -25 4 -5 -3 2 -15 16 -22 24 -22 24 -16 2 3 -12 9
-25 14 -28 5 -3 9 -13 9 -22 0 -12 -4 -9 -13 8 -7 14 -22 25 -32 25 -11 1 -26
4 -33 8 -16 11 -15 -3 3 -27 8 -11 15 -25 15 -30 0 -6 -9 4 -21 23 -11 18 -23
31 -26 27 -10 -9 -34 15 -26 27 3 6 1 7 -5 3 -9 -5 -9 -13 -2 -26 8 -16 8 -18
-5 -14 -8 4 -15 11 -15 16 0 6 -6 6 -14 -1 -12 -10 -14 -8 -10 11 2 13 2 17
-2 11 -3 -7 -10 -13 -15 -13 -6 0 -7 6 -4 13 4 6 -1 3 -9 -7 -12 -15 -16 -16
-16 -5 0 9 -3 10 -8 3 -10 -15 -41 -14 -35 1 2 7 -5 15 -16 18 -12 3 -21 0
-21 -6 0 -7 -5 -5 -10 3 -8 13 -10 12 -10 -3 0 -10 -5 -15 -10 -12 -6 4 -8 16
-4 28 6 22 6 22 -9 2 -16 -19 -16 -19 -11 5 4 18 3 21 -4 11 -14 -19 -28 -7
-36 30 -9 46 -62 146 -107 203 -21 27 -39 54 -39 61 0 11 33 31 80 48 8 3 44
6 80 6 48 1 76 -4 105 -20z m1268 -86 c-7 -2 -19 -2 -25 0 -7 3 -2 5 12 5 14
0 19 -2 13 -5z m-86 -19 c-3 -3 -12 -4 -19 -1 -8 3 -5 6 6 6 11 1 17 -2 13 -5z
m-50 -10 c-3 -3 -12 -4 -19 -1 -8 3 -5 6 6 6 11 1 17 -2 13 -5z m-467 -92 c0
-12 -47 -32 -73 -32 -18 1 -16 4 13 20 38 21 60 25 60 12z m-332 -217 c-3 -3
-9 2 -12 12 -6 14 -5 15 5 6 7 -7 10 -15 7 -18z m49 9 c-3 -3 -12 -4 -19 -1
-8 3 -5 6 6 6 11 1 17 -2 13 -5z m-2692 -93 c3 -5 1 -12 -5 -16 -5 -3 -10 1
-10 9 0 18 6 21 15 7z m-115 -91 c0 -5 -7 -10 -15 -10 -8 0 -15 5 -15 10 0 6
7 10 15 10 8 0 15 -4 15 -10z m-20 -71 c0 -6 -4 -7 -10 -4 -5 3 -10 11 -10 16
0 6 5 7 10 4 6 -3 10 -11 10 -16z m-80 -40 c0 -6 -4 -7 -10 -4 -5 3 -10 11
-10 16 0 6 5 7 10 4 6 -3 10 -11 10 -16z m100 11 c0 -5 -4 -10 -10 -10 -5 0
-10 5 -10 10 0 6 5 10 10 10 6 0 10 -4 10 -10z m-164 -24 c9 -9 10 -17 4 -21
-5 -3 -10 -1 -10 4 0 6 -5 11 -11 11 -6 0 -8 -7 -5 -16 5 -14 4 -15 -8 -5 -12
10 -13 16 -3 26 15 18 16 18 33 1z m-49 -41 c0 -8 -4 -15 -9 -15 -10 0 -11 14
-1 23 9 10 10 9 10 -8z m83 11 c0 -2 -7 -7 -16 -10 -8 -3 -12 -2 -9 4 6 10 25
14 25 6z m40 -6 c0 -5 -2 -10 -4 -10 -3 0 -8 5 -11 10 -3 6 -1 10 4 10 6 0 11
-4 11 -10z m-175 -60 c3 -5 1 -10 -4 -10 -6 0 -11 5 -11 10 0 6 2 10 4 10 3 0
8 -4 11 -10z m-25 -4 c0 -3 -4 -8 -10 -11 -5 -3 -10 -1 -10 4 0 6 5 11 10 11
6 0 10 -2 10 -4z m41 -33 c-8 -15 -10 -15 -11 -2 0 17 10 32 18 25 2 -3 -1
-13 -7 -23z m-21 3 c0 -3 -4 -8 -10 -11 -5 -3 -10 -1 -10 4 0 6 5 11 10 11 6
0 10 -2 10 -4z m-169 -77 c6 -13 7 -19 1 -15 -6 3 -12 0 -15 -6 -2 -7 -4 -1
-3 14 1 34 2 34 17 7z m-111 -63 c0 -18 -17 -1 -28 27 -11 28 -14 30 -23 15
-5 -10 -14 -18 -20 -18 -5 0 -2 11 8 24 l18 23 22 -33 c13 -18 23 -35 23 -38z
m-35 14 c3 -5 -1 -10 -10 -10 -9 0 -13 5 -10 10 3 6 8 10 10 10 2 0 7 -4 10
-10z m116 -13 c-10 -9 -11 -8 -5 6 3 10 9 15 12 12 3 -3 0 -11 -7 -18z"/>
<path d="M8795 6280 c3 -5 8 -10 11 -10 2 0 4 5 4 10 0 6 -5 10 -11 10 -5 0
-7 -4 -4 -10z"/>
<path d="M8640 6259 c-7 -11 -9 -23 -6 -27 3 -3 6 1 6 9 0 12 2 11 11 -1 8
-12 9 -10 4 9 -5 17 -4 22 5 16 9 -5 11 -4 6 3 -10 16 -14 15 -26 -9z"/>
<path d="M6082 6180 c0 -14 2 -19 5 -12 2 6 2 18 0 25 -3 6 -5 1 -5 -13z"/>
<path d="M6025 6130 c3 -5 8 -10 11 -10 2 0 4 5 4 10 0 6 -5 10 -11 10 -5 0
-7 -4 -4 -10z"/>
<path d="M6050 6121 c0 -6 5 -13 10 -16 6 -3 10 1 10 9 0 9 -4 16 -10 16 -5 0
-10 -4 -10 -9z"/>
<path d="M6033 6098 c2 -7 -5 -23 -16 -35 -12 -13 -15 -23 -8 -23 6 0 14 7 18
16 5 13 7 13 14 2 7 -10 9 -8 10 7 0 19 1 19 8 1 4 -11 10 -15 14 -9 3 5 -5
20 -19 32 -15 13 -24 17 -21 9z"/>
<path d="M5940 6066 c0 -8 4 -17 9 -20 5 -4 7 3 4 14 -6 23 -13 26 -13 6z"/>
<path d="M5856 5973 c-6 -14 -5 -15 5 -6 7 7 10 15 7 18 -3 3 -9 -2 -12 -12z"/>
<path d="M5820 5970 c0 -5 5 -10 10 -10 6 0 10 5 10 10 0 6 -4 10 -10 10 -5 0
-10 -4 -10 -10z"/>
<path d="M4892 5940 c0 -14 2 -19 5 -12 2 6 2 18 0 25 -3 6 -5 1 -5 -13z"/>
<path d="M5720 5904 c0 -10 31 -36 37 -31 3 3 -2 13 -10 22 -16 15 -27 19 -27
9z"/>
<path d="M5617 5858 c-5 -17 -9 -19 -20 -10 -11 10 -17 8 -28 -5 -12 -16 -12
-17 1 -6 18 14 56 -9 45 -27 -5 -8 -11 -5 -21 7 -7 10 -14 14 -14 10 0 -5 9
-20 20 -34 18 -23 20 -23 21 -7 1 11 3 36 4 57 4 41 0 48 -8 15z"/>
<path d="M5527 5856 c-4 -10 -3 -15 3 -11 6 3 10 1 10 -6 0 -7 3 -10 6 -6 3 3
2 13 -4 22 -8 16 -9 16 -15 1z"/>
<path d="M5480 5820 c0 -5 5 -10 11 -10 5 0 7 5 4 10 -3 6 -8 10 -11 10 -2 0
-4 -4 -4 -10z"/>
<path d="M5396 5803 c-6 -14 -5 -15 5 -6 7 7 10 15 7 18 -3 3 -9 -2 -12 -12z"/>
<path d="M5540 5808 c0 -7 5 -20 10 -28 9 -13 11 -13 19 -1 5 8 7 20 4 28 -6
17 -33 17 -33 1z m25 -8 c3 -5 1 -10 -4 -10 -6 0 -11 5 -11 10 0 6 2 10 4 10
3 0 8 -4 11 -10z"/>
<path d="M5636 5794 c-4 -10 -1 -14 6 -12 15 5 23 28 10 28 -5 0 -13 -7 -16
-16z"/>
<path d="M5433 5793 c-18 -7 -16 -23 2 -23 8 0 15 7 15 15 0 8 -1 15 -2 14 -2
0 -9 -3 -15 -6z"/>
<path d="M5461 5796 c2 -2 15 -9 29 -15 24 -11 24 -11 6 3 -16 13 -49 24 -35
12z"/>
<path d="M5320 5774 l-25 -14 25 0 c25 -1 25 -1 3 -10 -13 -5 -23 -12 -23 -14
0 -3 6 -3 14 0 8 3 16 -2 18 -12 3 -16 4 -16 18 1 9 11 10 16 3 11 -7 -4 -13
-3 -13 1 0 5 6 15 13 22 10 11 9 12 -2 6 -11 -6 -13 -4 -8 8 3 10 5 17 4 16
-1 -1 -13 -7 -27 -15z"/>
<path d="M5480 5769 c0 -4 7 -20 15 -35 8 -16 15 -22 15 -13 0 14 -29 61 -30
48z"/>
<path d="M2150 5454 c-36 -14 -121 -45 -190 -68 -69 -24 -210 -74 -315 -111
-104 -37 -230 -80 -279 -96 -50 -16 -117 -45 -150 -63 -34 -19 -70 -36 -81
-40 -11 -3 5 -3 36 -1 89 8 817 263 969 340 125 64 130 86 10 39z"/>
<path d="M335 4930 c-3 -5 -1 -10 4 -10 6 0 11 5 11 10 0 6 -2 10 -4 10 -3 0
-8 -4 -11 -10z"/>
<path d="M240 4865 c0 -8 -4 -15 -9 -15 -16 0 -42 -32 -37 -45 3 -9 -2 -11
-16 -7 -18 4 -19 3 -9 -17 15 -27 38 -27 46 -1 3 11 11 20 16 20 5 0 9 9 9 20
0 17 7 20 40 20 46 0 52 11 15 28 -35 16 -55 15 -55 -3z"/>
<path d="M691 4864 c0 -11 3 -14 6 -6 3 7 2 16 -1 19 -3 4 -6 -2 -5 -13z"/>
<path d="M298 4803 c7 -3 16 -2 19 1 4 3 -2 6 -13 5 -11 0 -14 -3 -6 -6z"/>
<path d="M329 4458 c-5 -18 -6 -38 -1 -34 7 8 12 36 6 36 -2 0 -4 -1 -5 -2z"/>
<path d="M362 4360 c0 -14 2 -19 5 -12 2 6 2 18 0 25 -3 6 -5 1 -5 -13z"/>
<path d="M2427 4290 c-26 -5 -98 -24 -160 -44 -194 -61 -237 -69 -432 -72 -99
-1 -182 -3 -185 -3 -3 -1 -23 -24 -43 -51 -62 -83 -83 -95 -372 -211 -92 -37
-150 -58 -206 -73 -64 -18 -99 -43 -140 -99 -49 -67 -45 -68 116 -33 61 14
148 30 194 36 47 6 97 18 112 26 36 18 38 18 32 -7 -6 -21 -3 -22 41 -17 31 4
65 18 101 42 30 20 57 36 60 36 3 0 10 -12 15 -26 9 -23 14 -26 41 -20 51 10
175 84 216 128 56 59 195 180 234 202 30 17 27 12 -21 -37 -70 -72 -72 -93
-10 -89 31 2 77 19 145 53 84 43 119 69 215 160 63 59 111 108 105 107 -5 0
-31 -4 -58 -8z"/>
<path d="M395 4262 c-15 -17 -39 -33 -53 -37 -15 -4 -72 -24 -127 -45 -55 -22
-126 -46 -158 -55 -38 -11 -57 -22 -57 -32 0 -19 6 -18 190 46 80 28 152 50
160 49 14 -3 85 90 76 99 -2 3 -16 -9 -31 -25z"/>
<path d="M2160 4270 c0 -5 5 -10 11 -10 5 0 7 5 4 10 -3 6 -8 10 -11 10 -2 0
-4 -4 -4 -10z"/>
<path d="M2648 4273 c6 -2 18 -2 25 0 6 3 1 5 -13 5 -14 0 -19 -2 -12 -5z"/>
<path d="M2585 4260 c-8 -13 5 -13 25 0 13 8 13 10 -2 10 -9 0 -20 -4 -23 -10z"/>
<path d="M65 4080 c-3 -5 -19 -10 -36 -10 l-29 0 0 -446 0 -446 33 7 c17 4 43
8 56 7 13 0 19 3 13 7 -6 4 0 19 17 40 19 23 32 31 41 26 10 -6 9 -11 -5 -21
-16 -12 -15 -13 7 -10 13 1 28 5 33 8 6 3 23 8 39 12 23 6 27 9 15 17 -11 7
-11 9 5 9 12 0 16 5 12 16 -4 11 3 19 24 27 16 6 30 17 30 24 0 7 9 13 20 13
39 0 60 35 60 100 l0 60 -80 0 c-73 0 -80 -2 -80 -20 0 -16 -7 -20 -34 -20
-18 0 -47 3 -64 6 -28 6 -30 8 -21 32 14 37 2 82 -22 82 -17 0 -19 9 -21 83
-4 137 -1 181 16 212 20 37 20 52 0 90 -8 16 -16 47 -16 67 0 40 -3 45 -13 28z"/>
<path d="M750 3730 c-49 -21 -49 -21 -3 -25 24 -2 33 3 42 21 6 13 10 24 8 23
-1 -1 -22 -9 -47 -19z"/>
<path d="M270 3733 c0 -6 8 -17 18 -24 16 -13 16 -13 2 6 -8 11 -16 22 -17 24
-2 2 -3 0 -3 -6z"/>
<path d="M294 3731 c7 -11 46 -35 46 -28 0 3 -12 12 -26 22 -15 9 -23 12 -20
6z"/>
<path d="M636 3698 c3 -5 10 -6 15 -3 13 9 11 12 -6 12 -8 0 -12 -4 -9 -9z"/>
<path d="M818 3603 c7 -3 16 -2 19 1 4 3 -2 6 -13 5 -11 0 -14 -3 -6 -6z"/>
<path d="M168 3513 c7 -3 16 -2 19 1 4 3 -2 6 -13 5 -11 0 -14 -3 -6 -6z"/>
</g>
</svg>
